<svg width="658" height="244" viewBox="0 0 658 244" fill="none" xmlns="http://www.w3.org/2000/svg">
<g clip-path="url(#clip0)">
<path d="M582.853 19.9604L580.975 17.1391L578.626 14.3177L579.096 13.8475L581.914 11.9666L586.141 18.0795L582.853 19.9604Z" fill="#E6007A"/>
<path d="M350.37 243.789H346.613V236.265H350.37L354.127 235.795L354.597 243.319L350.37 243.789ZM280.39 242.849L276.633 242.378H272.875V234.855H277.102L280.86 235.325L280.39 242.849ZM207.122 241.908H199.608V234.385H207.122V241.908ZM133.855 241.908H126.34V234.385H133.855V241.908ZM60.1172 240.968L56.3599 240.497L53.0723 240.027L53.5419 232.504L57.7689 232.974L61.5262 233.444L60.1172 240.968ZM419.88 235.325L418.941 227.801L422.698 227.331L426.456 226.391L428.334 233.914L424.577 234.855L419.88 235.325ZM108.023 216.986L106.144 209.462L109.902 208.522L113.189 207.581L115.538 214.635L111.78 215.575L108.023 216.986ZM490.33 213.224L486.573 206.641L493.148 202.879L496.905 209.462L493.618 211.343L490.33 213.224ZM178.942 198.647L177.064 191.124L180.821 190.183L184.109 189.243L186.457 196.296L182.7 197.707L178.942 198.647ZM249.862 180.308L247.983 173.255L251.74 172.314L255.028 171.374L257.376 178.427L253.619 179.838L249.862 180.308ZM321.251 162.44L319.372 155.386L323.129 154.446L326.417 153.505L328.765 160.559L325.008 161.499L321.251 162.44ZM541.993 159.618L534.948 156.797L536.357 153.505L539.645 154.916L542.932 156.327L541.993 159.618ZM392.17 145.041L390.291 137.517L394.049 136.577L397.336 135.637L399.685 142.69L395.927 144.101L392.17 145.041ZM463.559 128.113L461.68 121.059L469.195 119.179L471.074 126.232L463.559 128.113ZM556.083 86.7328L548.568 86.2626L549.038 82.0305L549.508 78.2687L557.022 79.2091L556.553 82.971L556.083 86.7328Z" fill="#E6007A"/>
<path d="M534.479 110.714L533.539 103.191L537.297 102.721L540.584 101.78L542.463 109.304L538.236 110.244L534.479 110.714Z" fill="#E6007A"/>
<path d="M570.642 61.3406L563.597 60.4001L564.067 56.1681L564.537 52.8765L572.051 53.8169L571.112 57.5788L570.642 61.3406Z" fill="#E6007A"/>
<path d="M362.111 228.742L361.642 221.218L365.399 220.748L365.869 228.272L362.111 228.742ZM294.48 228.742H286.965V221.218H294.48V228.742ZM219.333 228.272H211.819V220.748H219.333V228.272ZM144.187 228.272H136.672V220.748H144.187V228.272ZM69.0407 227.801H64.8137L61.0564 227.331L61.5261 219.808L65.2834 220.278H69.0407V227.801ZM437.258 216.516L435.379 209.463L439.136 208.522L442.894 207.582L444.772 214.635L441.015 215.576L437.258 216.516ZM77.9643 208.992L75.616 201.939L79.3733 200.528L83.1306 199.588L84.5396 207.111L81.252 208.052L77.9643 208.992ZM508.647 192.064L505.359 185.481L511.934 182.189L515.222 188.773L511.934 190.653L508.647 192.064ZM150.293 189.243L148.414 181.719L152.171 180.779L155.459 179.838L157.338 186.892L154.05 188.302L150.293 189.243ZM223.091 170.434L221.212 162.91L224.969 161.969L228.257 161.029L230.136 168.082L226.378 169.493L223.091 170.434ZM295.419 152.095L293.54 144.571L297.298 143.631L300.585 142.69L302.464 149.744L298.707 150.684L295.419 152.095ZM559.37 136.107L552.325 133.756L554.674 126.702L561.719 129.053L559.37 136.107ZM368.687 133.756L366.808 126.702L370.565 125.762L373.853 124.821L375.732 131.875L371.974 132.815L368.687 133.756Z" fill="#E6007A"/>
<path d="M441.015 115.887L439.606 108.834L443.364 107.893L446.651 106.953L448.53 114.476L441.015 115.887Z" fill="#E6007A"/>
<path d="M581.444 19.4902L574.869 15.7283L576.748 12.907L577.687 9.61536L584.732 11.9665L583.793 16.1986L581.444 19.4902Z" fill="#E6007A"/>
<path d="M32.8762 225.921H25.3616V218.397H32.8762V225.921ZM101.917 224.98L101.447 217.456L105.674 216.986H109.432V224.51H105.674L101.917 224.98ZM336.749 224.98H332.522L328.765 224.51L329.234 216.986L332.992 217.456H336.749V224.98ZM260.663 224.04H253.149V216.516H260.663V224.04ZM185.048 224.04H177.533V216.516H185.048V224.04ZM404.85 221.688L404.381 214.165L408.138 213.695L411.895 213.224L412.835 220.748L408.608 221.688H404.85ZM54.9504 209.933L52.6021 202.879L56.3594 201.469L60.1167 200.528L61.5257 208.052L58.2381 208.992L54.9504 209.933ZM479.997 206.171L477.648 199.118L480.936 198.177L484.224 196.766L487.042 203.82L483.284 205.23L479.997 206.171ZM128.218 190.183L125.87 183.13L129.627 181.719L133.384 180.779L134.793 188.302L131.506 188.772L128.218 190.183ZM201.486 170.434L199.607 162.91L203.364 161.969L206.652 161.029L208.531 168.082L204.773 169.023L201.486 170.434ZM545.75 165.261L539.644 161.029L541.993 157.737L544.341 154.916L549.977 159.618L547.629 162.44L545.75 165.261ZM274.753 151.624L272.875 144.101L276.632 143.16L279.92 142.22L281.798 149.273L278.041 150.214L274.753 151.624ZM348.491 133.286L346.612 126.232L350.369 125.292L353.657 124.351L355.536 131.405L351.778 132.345L348.491 133.286ZM422.228 114.947L420.349 107.893L424.107 106.953L427.394 106.012L429.273 113.066L425.516 114.006L422.228 114.947ZM495.965 97.0779L494.087 89.5543L497.844 88.6138L501.132 87.6733L503.01 94.7268L499.253 95.6672L495.965 97.0779ZM572.051 93.7863L564.536 92.8459L565.006 89.084L565.476 85.3222L572.99 85.7924L572.521 90.0245L572.051 93.7863ZM569.703 79.6795L567.824 72.626L571.581 71.6856L574.869 70.7451L576.748 77.7985L572.99 78.739L569.703 79.6795Z" fill="#E6007A"/>
<path d="M643.441 62.281L641.562 55.2275L645.319 54.2871L649.077 53.3466L650.486 60.4L647.198 61.3405L643.441 62.281Z" fill="#E6007A"/>
<path d="M581.914 41.1208H574.4V36.4185L574.87 32.6567L582.384 34.0674L581.914 37.359V41.1208Z" fill="#E6007A"/>
<path d="M76.0855 220.748L75.6159 213.224L79.8428 212.754H83.6002V220.278H79.8428L76.0855 220.748ZM311.387 220.748L307.63 220.278H303.873V212.754H308.1L311.857 213.224L311.387 220.748ZM380.898 220.278L379.958 212.754L384.185 212.284L387.943 211.814L388.412 219.337L384.655 219.808L380.898 220.278ZM3.7572 220.278L0.939209 213.224L7.98418 210.403L10.8022 217.456L3.7572 220.278ZM235.771 219.337H228.257V211.814H235.771V219.337ZM159.216 219.337H151.702V211.814H159.216V219.337ZM456.983 209.463L454.635 202.409L458.392 200.998L462.15 200.058L463.559 207.582L460.271 208.522L456.983 209.463ZM76.5552 198.647L74.2069 191.594L77.9642 190.183L81.7215 189.243L83.1305 196.766L79.8428 197.707L76.5552 198.647ZM528.372 180.779L524.146 174.666L526.964 172.315L529.312 175.136L531.66 177.957L528.372 180.779ZM150.293 178.898L147.944 171.844L151.702 170.434L155.459 169.493L156.868 177.017L153.58 177.957L150.293 178.898ZM223.56 159.618L221.682 152.095L225.439 151.154L228.727 150.214L230.605 157.267L226.848 158.208L223.56 159.618ZM297.298 140.809L295.889 133.286L299.646 132.345L302.934 131.405L304.812 138.458L301.055 139.399L297.298 140.809ZM371.035 122L369.626 114.476L372.914 113.536L376.201 112.595L378.549 119.649L374.792 121.06L371.035 122ZM572.051 117.768L565.006 115.417L565.946 112.125L566.885 108.834L574.4 110.244L573.46 114.476L572.051 117.768ZM445.242 103.661L443.363 96.1375L447.121 95.197L450.408 94.2566L452.287 101.31L448.53 102.25L445.242 103.661ZM519.449 85.7925L518.04 78.2688L521.328 77.3283L524.615 76.3879L526.964 83.4413L523.206 84.852L519.449 85.7925Z" fill="#E6007A"/>
<path d="M593.656 68.3939L591.777 61.3405L595.535 59.9298L599.292 58.9894L600.701 66.513L597.413 67.4535L593.656 68.3939Z" fill="#E6007A"/>
<path d="M592.717 79.2092L585.202 77.7985L585.672 74.0367L586.141 70.7451L593.656 71.6856L593.186 75.4474L592.717 79.2092Z" fill="#E6007A"/>
<path d="M56.8295 207.582L56.3599 200.058L60.5869 199.588H64.3442V207.111H60.5869L56.8295 207.582ZM359.763 206.171H352.248V198.647H359.763V206.171ZM286.026 206.171H278.511V198.647H286.026V206.171ZM212.288 206.171H204.774V198.647H212.288V206.171ZM138.081 206.171H130.567V198.647H138.081V206.171ZM10.8024 202.409L8.4541 195.356L15.4991 193.005L17.8474 200.058L10.8024 202.409ZM426.925 201.469L425.986 193.945L433.5 193.005L434.44 200.528L426.925 201.469ZM499.723 185.951L497.375 178.898L504.42 176.547L506.768 183.6L499.723 185.951ZM81.7218 181.719L79.3734 174.666L83.1308 173.725L86.8881 172.785L88.7667 179.838L85.4791 180.779L81.7218 181.719ZM152.641 162.44L150.762 154.916L154.52 153.976L157.807 153.035L160.156 160.089L156.398 161.029L152.641 162.44ZM565.007 148.333L558.901 144.101L561.249 140.809L563.597 137.988L569.233 143.16L566.885 145.982L565.007 148.333ZM224.5 143.631L222.621 136.577L226.378 135.637L229.666 134.696L232.014 141.75L228.257 143.16L224.5 143.631ZM295.889 124.821L294.48 117.768L298.237 116.827L301.525 115.887L303.873 122.94L300.116 124.351L295.889 124.821ZM367.747 106.953L365.869 99.429L369.626 98.4886L372.914 97.5481L375.262 104.602L371.505 105.542L367.747 106.953ZM439.606 89.084L437.727 82.0306L441.485 81.0901L444.772 80.1497L447.121 87.2031L443.363 88.1435L439.606 89.084Z" fill="#E6007A"/>
<path d="M510.995 71.2154L509.116 64.1619L516.161 62.281L518.509 69.3344L510.995 71.2154Z" fill="#E6007A"/>
<path d="M594.126 98.0184L587.081 96.6078L587.55 92.3757L588.959 89.0841L596.004 91.4352L595.065 94.7269L594.126 98.0184Z" fill="#E6007A"/>
<path d="M35.2246 203.35H27.71V195.826H35.2246V203.35ZM103.326 201.939L102.856 194.415L107.083 193.945H110.841V201.469H107.083L103.326 201.939ZM336.749 201.939H329.235V194.415H336.749V201.939ZM261.603 201.469H254.088V193.945H261.603V201.469ZM185.987 201.469H178.472V193.945H185.987V201.469ZM404.851 200.058L404.381 192.534L408.138 192.064L408.608 199.588L404.851 200.058ZM479.997 189.713L478.588 182.189L485.633 180.779L487.042 187.832L479.997 189.713ZM37.5729 189.243L35.2246 182.189L38.9819 181.249L42.7392 180.308L44.6179 187.362L37.5729 189.243ZM110.371 169.023L108.023 161.969L111.78 160.559L115.537 159.618L116.946 167.142L113.659 168.082L110.371 169.023ZM551.386 161.499L546.689 155.856L549.977 153.505L552.795 151.154L557.022 157.267L554.204 159.618L551.386 161.499ZM183.169 149.273L180.821 142.22L184.578 140.809L188.335 139.869L189.744 147.392L186.457 148.333L183.169 149.273ZM255.967 129.994L254.088 122.47L257.846 121.53L261.133 120.589L263.012 127.643L259.255 128.583L255.967 129.994ZM328.765 111.185L326.886 104.131L330.644 103.191L333.931 102.25L335.81 109.304L332.053 110.244L328.765 111.185ZM402.033 92.8458L400.154 85.7924L403.911 84.8519L407.199 83.9114L409.078 90.9649L405.32 91.9053L402.033 92.8458Z" fill="#E6007A"/>
<path d="M474.831 74.977L472.952 67.4534L476.709 66.5129L478.588 74.0366L474.831 74.977Z" fill="#E6007A"/>
<path d="M597.883 56.6382V52.4061L598.353 48.6443L605.867 50.055L605.398 53.3466V56.6382H597.883Z" fill="#E6007A"/>
<path d="M366.808 199.588L366.338 192.064L370.565 191.594H374.323V199.118H370.565L366.808 199.588ZM297.298 197.237H289.783V189.713H297.298V197.237ZM220.742 197.237H213.228V189.713H220.742V197.237ZM144.187 197.237H136.672V189.713H144.187V197.237ZM67.1621 196.766H59.6474V189.243H67.1621V196.766ZM443.363 193.945L442.424 186.421L449.939 185.481L450.878 193.005L443.363 193.945ZM46.9665 181.719L44.6182 174.666L48.3755 173.725L52.1328 172.785L54.0115 179.838L46.9665 181.719ZM518.979 176.076L516.161 169.023L523.206 166.202L526.024 173.255L518.979 176.076ZM120.704 161.029L118.825 153.976L122.582 153.035L126.34 152.095L128.218 159.148L124.461 160.089L120.704 161.029ZM194.911 141.279L193.032 134.226L196.789 133.286L200.547 132.345L202.425 139.869L198.668 140.809L194.911 141.279ZM582.854 131.405L576.748 127.173L578.627 123.881L581.914 125.762L585.202 127.643L582.854 131.405ZM269.118 122L267.239 114.947L270.996 114.006L274.754 113.066L276.632 120.119L272.875 121.06L269.118 122ZM343.325 102.25L341.916 94.7268L345.203 93.7864L348.491 92.8459L350.839 99.8994L347.082 101.31L343.325 102.25ZM417.532 83.4414L416.123 75.9177L419.41 74.9772L422.698 74.0368L425.046 81.0902L421.289 82.5009L417.532 83.4414ZM492.208 65.1024L490.799 57.5788L494.087 56.6383L497.375 55.6979L499.723 62.7513L495.966 64.162L492.208 65.1024ZM566.415 46.7635L565.006 39.2399L568.294 38.2994L571.582 37.3589L573.93 44.4124L570.173 45.8231L566.415 46.7635Z" fill="#E6007A"/>
<path d="M646.923 20.0183L639.698 22.0843L641.761 29.3183L648.987 27.2523L646.923 20.0183Z" fill="#E6007A"/>
<path d="M608.215 75.9177L600.701 74.507L602.11 66.9833L609.624 68.394L608.685 72.1559L608.215 75.9177Z" fill="#E6007A"/>
<path d="M369.156 193.004H361.641V185.481H369.156V193.004ZM295.419 193.004H287.904V185.481H295.419V193.004ZM222.151 193.004H214.636V185.481H222.151V193.004ZM148.414 192.534H140.899V185.011H148.414V192.534ZM75.146 192.534H67.6314V185.011H75.146V192.534ZM435.379 189.713L434.439 182.189L441.954 181.249L442.893 188.772L435.379 189.713ZM37.1032 180.308L35.6942 176.546L34.7549 172.785L38.5122 171.844L40.8605 178.898L37.1032 180.308ZM507.707 174.666L505.828 167.612L509.116 166.672L512.404 165.731L514.752 172.785L510.995 173.725L507.707 174.666ZM104.265 161.029L101.917 153.976L105.674 152.565L109.432 151.624L111.31 159.148L107.553 160.088L104.265 161.029ZM574.869 142.22L569.703 137.047L574.869 131.875L580.035 137.047L574.869 142.22ZM174.715 141.75L172.836 134.226L176.594 133.285L179.881 132.345L182.23 139.398L178.472 140.809L174.715 141.75ZM245.634 122.94L244.225 115.417L247.983 114.476L251.27 113.536L253.619 120.589L249.861 121.53L245.634 122.94ZM317.023 104.131L315.145 96.6076L318.902 95.6672L322.19 94.7267L324.538 101.78L320.781 102.721L317.023 104.131ZM387.943 86.2626L386.064 78.7389L389.821 77.7985L393.109 76.858L395.457 83.9114L391.7 85.3221L387.943 86.2626ZM459.332 67.9237L457.453 60.8703L461.21 59.9298L464.498 58.9893L466.846 66.0428L463.089 66.9832L459.332 67.9237ZM530.721 50.5252L528.842 43.4718L532.599 42.5313L535.887 41.5909L538.235 48.6443L534.478 49.5848L530.721 50.5252Z" fill="#E6007A"/>
<path d="M602.11 33.1267L600.231 26.0733L603.989 25.1328L607.276 24.1924L609.625 31.2458L605.398 32.1863L602.11 33.1267Z" fill="#E6007A"/>
<path d="M610.094 91.9053L602.58 90.4946L603.519 86.2625L604.458 82.9709L611.503 85.3221L610.564 88.6137L610.094 91.9053Z" fill="#E6007A"/>
<path d="M348.491 188.773H340.977V181.249H348.491V188.773ZM273.345 188.302H265.831V180.779H273.345V188.302ZM198.199 188.302H190.684V180.779H198.199V188.302ZM123.522 188.302H116.008V180.779H123.522V188.302ZM48.3759 187.832H44.1489L40.3916 187.362L40.8613 179.838L44.6186 180.308H48.3759V187.832ZM416.123 187.362L415.654 179.838L419.411 179.368L419.88 186.892L416.123 187.362ZM490.8 177.487L489.86 169.963L493.148 169.493L496.436 168.553L498.314 175.606L494.557 176.547L490.8 177.487ZM58.2388 169.493L55.8905 162.44L59.6478 161.029L63.4052 160.089L65.2838 167.612L61.9962 168.553L58.2388 169.493ZM562.189 152.095L558.431 145.512L561.719 143.631L564.537 141.75L568.764 147.863L565.476 150.214L562.189 152.095ZM130.567 149.273L128.219 142.22L131.976 140.809L135.733 139.869L137.142 147.392L133.855 148.333L130.567 149.273ZM202.895 129.524L200.547 122.47L204.304 121.06L208.062 120.119L209.471 127.643L206.183 128.583L202.895 129.524ZM275.224 110.244L273.345 103.191L277.102 102.25L280.39 101.31L282.269 108.363L278.511 109.304L275.224 110.244ZM347.552 91.4352L345.673 83.9116L349.431 82.9711L352.718 82.0307L354.597 89.0841L350.84 90.0245L347.552 91.4352ZM420.35 72.6261L418.471 65.5727L422.229 64.6322L425.516 63.6917L427.395 70.7452L423.638 71.6856L420.35 72.6261ZM493.148 54.7574L491.269 47.704L495.027 46.7635L498.314 45.8231L500.193 52.8765L496.436 53.8169L493.148 54.7574Z" fill="#E6007A"/>
<path d="M565.946 36.8886L564.067 29.8352L567.825 28.4245L571.582 27.484L573.461 35.0077L569.703 35.9481L565.946 36.8886Z" fill="#E6007A"/>
<path d="M615.121 45.6903L614.059 53.1388L621.498 54.2026L622.561 46.7542L615.121 45.6903Z" fill="#E6007A"/>
<path d="M396.397 185.951H388.883V178.427H396.397V185.951ZM31.468 185.951H23.9534V178.427H31.468V185.951ZM97.6907 184.54L97.221 177.017L101.448 176.546H105.205V184.07H101.448L97.6907 184.54ZM323.599 184.07H316.085V176.546H323.599V184.07ZM250.801 184.07H243.287V176.546H250.801V184.07ZM177.534 184.07H170.019V176.546H177.534V184.07ZM462.15 180.308L461.681 172.785L465.438 172.314L469.195 171.844L470.135 179.368L465.908 179.838L462.15 180.308ZM40.3916 169.963L38.9826 166.201L38.0433 162.44L41.8006 161.499L44.1489 168.553L40.3916 169.963ZM534.009 163.85L531.661 156.797L534.948 155.856L538.236 154.446L541.054 161.499L537.297 162.91L534.009 163.85ZM106.614 151.154L104.266 144.101L108.023 143.16L111.781 142.22L113.659 149.743L109.902 150.684L106.614 151.154ZM176.594 131.404L174.716 123.881L178.473 122.94L181.761 122L184.109 129.053L180.352 129.994L176.594 131.404ZM596.474 123.881L590.839 119.179L593.187 116.357L595.535 113.536L601.641 118.238L599.292 121.53L596.474 123.881ZM247.514 112.595L245.635 105.072L249.392 104.131L252.68 103.191L255.028 110.244L251.271 111.655L247.514 112.595ZM317.963 94.2564L316.085 87.203L319.842 86.2625L323.13 85.3221L325.478 92.3755L321.721 93.316L317.963 94.2564Z" fill="#E6007A"/>
<path d="M393.919 66.6773L386.634 68.5214L388.476 75.8155L395.761 73.9715L393.919 66.6773Z" fill="#E6007A"/>
<path d="M625.124 70.2748L618.079 69.3343L619.018 61.8107L626.533 62.7511L626.063 66.513L625.124 70.2748Z" fill="#E6007A"/>
<path d="M63.8744 180.779L63.4047 173.255L67.6317 172.785H71.389V180.308H67.6317L63.8744 180.779ZM372.444 179.838H364.929V172.314H372.444V179.838ZM296.828 179.838H289.313V172.314H296.828V179.838ZM221.682 179.838H214.167V172.314H221.682V179.838ZM146.066 179.838H138.551V172.314H146.066V179.838ZM440.545 178.898L440.076 171.374L443.833 170.904L447.59 170.434L448.53 177.957L444.303 178.898H440.545ZM2.81799 177.957L0 171.374L7.04497 168.553L9.86296 175.606L2.81799 177.957ZM514.752 164.791L513.343 157.267L516.631 156.327L519.919 155.386L522.267 162.44L518.51 163.85L514.752 164.791ZM74.207 155.856L71.8587 148.803L75.616 147.392L79.3733 146.452L80.7823 153.976L77.4947 154.916L74.207 155.856ZM585.672 135.637L580.975 129.994L586.611 125.292L591.308 130.934L585.672 135.637ZM147.005 135.166L144.657 128.113L148.414 126.702L152.171 125.762L153.58 133.286L150.293 134.226L147.005 135.166ZM219.803 115.417L217.455 108.363L221.212 106.953L224.969 106.012L226.378 113.536L223.091 114.476L219.803 115.417ZM292.131 96.1375L290.253 89.084L294.01 88.1436L297.298 87.2031L299.176 94.2566L295.889 95.197L292.131 96.1375Z" fill="#E6007A"/>
<path d="M364.929 77.3282L363.051 69.8045L366.808 68.8641L368.687 76.3877L364.929 77.3282Z" fill="#E6007A"/>
<path d="M639.683 49.5848L632.169 48.6444L633.108 44.8826L633.578 41.1207L640.623 42.0612L640.153 45.823L639.683 49.5848Z" fill="#E6007A"/>
<path d="M409.078 172.314H404.851L401.094 171.844L401.563 164.321L405.321 164.791H409.078V172.314ZM336.28 171.374H328.765V163.85H336.28V171.374ZM263.952 171.374H256.437V163.85H263.952V171.374ZM191.154 171.374H183.639V163.85H191.154V171.374ZM118.356 170.904H110.841V163.38H118.356V170.904ZM45.5575 170.904H41.3306L37.5732 170.433L38.0429 162.91L42.2699 163.38H46.0272L45.5575 170.904ZM474.361 168.553L473.892 161.029L477.649 160.559L481.406 160.088L482.346 167.612L478.119 168.082L474.361 168.553ZM546.69 153.975L543.872 146.922L547.629 145.511L551.386 144.571L553.735 151.624L550.447 152.565L546.69 153.975ZM57.2992 152.095L54.9508 145.041L58.7081 144.101L62.4655 143.16L64.3441 150.214L61.0565 151.154L57.2992 152.095ZM127.279 131.875L124.931 124.821L128.688 123.881L132.445 122.94L134.324 129.994L130.567 130.934L127.279 131.875ZM610.564 117.298L604.928 112.125L610.094 106.482L615.73 111.655L610.564 117.298ZM196.79 112.125L194.911 104.601L198.199 103.661L201.486 102.721L203.834 109.774L200.077 111.185L196.79 112.125ZM267.239 93.316L265.361 85.7923L269.118 84.8519L272.406 83.9114L274.754 90.9648L270.997 92.3755L267.239 93.316ZM337.219 74.5068L335.341 67.4534L339.098 66.5129L342.386 65.5725L344.734 72.6259L340.977 74.0366L337.219 74.5068ZM407.669 56.6381L405.79 49.5847L409.078 48.6443L412.366 47.7038L414.714 54.7572L410.957 56.1679L407.669 56.6381Z" fill="#E6007A"/>
<path d="M478.118 38.2994L476.709 30.7758L480.467 30.3055L480.936 34.0674L481.876 37.359V37.8292L478.118 38.2994Z" fill="#E6007A"/>
<path d="M643.44 64.1619L635.925 61.8108L636.865 58.5192L637.804 55.2276L644.849 56.1681L644.379 60.4001L643.44 64.1619Z" fill="#E6007A"/>
<path d="M388.412 168.082L380.898 167.612L381.367 160.088L388.882 160.559L388.412 168.082ZM313.736 167.142H306.221V159.618H313.736V167.142ZM238.589 167.142H231.075V159.618H238.589V167.142ZM163.443 166.672H155.928V159.148H163.443V166.672ZM88.7664 166.672H81.2518V159.148H88.7664V166.672ZM456.044 166.672L455.574 159.148L459.332 158.678L459.801 166.201L456.044 166.672ZM20.6651 160.559L17.3774 153.975L21.1348 152.095L24.4224 150.684L27.2404 157.737L23.9527 159.148L20.6651 160.559ZM531.19 155.856L529.312 148.803L533.069 147.862L536.826 146.922L538.705 154.446L534.948 155.386L531.19 155.856ZM91.1148 137.988L89.2361 130.934L92.9934 129.994L96.7507 129.053L98.6294 136.577H94.8721L91.1148 137.988ZM601.17 126.702L596.474 121.059L599.761 118.708L602.579 116.357L606.806 122.47L603.988 124.821L601.17 126.702ZM163.443 117.298L161.095 110.244L164.852 108.834L169.079 108.363L170.488 115.887L167.2 116.827L163.443 117.298ZM235.771 97.548L233.423 90.4946L237.18 89.0839L240.938 88.1435L242.347 95.6671L239.059 96.6076L235.771 97.548ZM308.1 78.2687L305.751 71.2152L309.509 69.8045L313.266 68.8641L314.675 76.3877L311.387 77.3282L308.1 78.2687ZM380.428 58.9893L378.549 51.9358L382.307 50.9954L385.594 50.0549L387.473 57.1084L383.716 58.0488L380.428 58.9893Z" fill="#E6007A"/>
<path d="M453.696 40.1801L451.348 33.1267L458.862 31.2458L460.741 38.2992L453.696 40.1801Z" fill="#E6007A"/>
<path d="M645.319 76.3879L638.274 73.5665L639.683 70.2749L640.622 66.9833L647.667 69.3345L646.728 73.0963L645.319 76.3879Z" fill="#E6007A"/>
<path d="M387.473 162.91H379.958V155.386H387.473V162.91ZM314.675 162.91H307.16V155.386H314.675V162.91ZM456.514 162.91H452.756V155.386H456.514L460.271 154.916L460.741 162.44L456.514 162.91ZM242.347 162.91H234.832V155.386H242.347V162.91ZM169.549 162.44H162.034V155.386H169.549V162.44ZM96.7506 162.44H89.2359V154.916H96.7506V162.44ZM23.0132 161.499L19.7256 160.559L15.9683 159.618L17.8469 152.565L21.6042 153.505L25.3616 154.446L23.0132 161.499ZM525.085 153.035L524.145 145.511L527.903 145.041L531.66 144.101L533.539 151.154L529.781 152.095L525.085 153.035ZM80.3123 137.047L77.964 129.994L81.7213 129.053L85.4786 128.113L87.3573 135.166L83.6 136.107L80.3123 137.047ZM595.065 130.464L591.777 123.881L595.065 122.47L597.883 120.589L602.11 126.702L598.822 129.053L595.065 130.464ZM150.292 116.827L147.944 109.774L151.701 108.834L155.459 107.893L157.337 114.946L153.58 115.887L150.292 116.827ZM219.803 97.0778L217.924 90.0244L221.212 89.0839L224.499 88.1435L226.848 95.1969L223.09 96.6076L219.803 97.0778ZM289.783 78.2687L287.904 70.745L291.192 69.8045L294.479 68.8641L296.828 75.9175L293.07 77.3282L289.783 78.2687ZM360.232 59.4595L358.354 51.9358L361.641 50.9954L364.929 50.0549L367.277 57.1084L363.52 58.519L360.232 59.4595Z" fill="#E6007A"/>
<path d="M430.682 41.5909L428.334 34.5375L435.849 32.1863L437.727 39.2398L430.682 41.5909Z" fill="#E6007A"/>
<path d="M647.667 99.4292L642.501 94.2566L645.319 91.4353L648.607 89.0841L652.834 95.1971L650.016 97.078L647.667 99.4292Z" fill="#E6007A"/>
<path d="M430.212 146.452H422.698V138.928H430.212V146.452ZM353.187 146.452H345.673V138.928H353.187V146.452ZM275.693 145.982H268.178V138.458H275.693V145.982ZM198.668 145.982H191.153V138.458H198.668V145.982ZM121.643 145.982H114.128V138.458H121.643V145.982ZM44.148 145.511L40.3907 145.041H37.103V137.518H41.33L45.0873 137.988L44.148 145.511ZM500.192 145.511L499.723 137.988L507.237 137.518L507.707 145.041L500.192 145.511ZM576.748 133.286L574.869 125.762L578.626 124.821L582.384 123.881L584.262 130.934L580.505 131.875L576.748 133.286ZM79.8425 122L77.4942 114.947L81.2515 114.006L84.5391 113.066L86.4178 120.119L79.8425 122ZM157.337 98.9588L156.398 95.197L154.989 91.9054L158.746 90.965L161.094 98.0184L157.337 98.9588ZM227.787 79.2092L225.908 72.1558L229.665 71.2154L233.423 70.2749L235.301 77.7986L231.544 78.739L227.787 79.2092ZM301.994 58.5192L300.115 51.4658L303.872 50.5253L307.63 49.5848L309.508 57.1085L305.751 58.049L301.994 58.5192Z" fill="#E6007A"/>
<path d="M376.671 38.2994L374.792 30.7758L378.55 30.3055L379.959 37.359L376.671 38.2994Z" fill="#E6007A"/>
<path d="M642.501 105.542L637.805 99.4291L641.562 97.0779L644.38 95.197L648.607 101.78L645.319 103.661L642.501 105.542Z" fill="#E6007A"/>
<path d="M496.435 142.69L495.965 135.166L499.723 134.696L500.192 142.22L496.435 142.69ZM428.803 142.22H421.289V134.696H428.803V142.22ZM354.127 142.22H346.612V134.696H354.127V142.22ZM278.98 142.22H271.466V134.696H278.98V142.22ZM204.304 142.22H196.789V134.696H204.304V142.22ZM129.157 141.75H121.643V134.226H129.157V141.75ZM54.4806 141.75H50.2537L46.4963 141.279L46.966 133.756L50.7233 134.226H54.4806V141.75ZM571.112 132.815L569.703 125.292L576.748 123.881L578.157 130.934L571.112 132.815ZM72.7976 120.589L70.4492 113.536L77.4942 111.185L79.8425 118.238L72.7976 120.589ZM144.656 98.9587L142.308 91.9053L149.353 89.5542L151.701 96.6076L144.656 98.9587ZM216.515 78.2687L214.167 71.2153L217.924 69.8046L221.681 68.8641L223.09 76.3878L219.803 77.3282L216.515 78.2687ZM288.843 58.0489L286.495 50.9954L290.252 49.5847L294.01 48.6443L295.888 56.6382L292.601 57.5786L288.843 58.0489Z" fill="#E6007A"/>
<path d="M361.172 38.2994L359.293 31.246L362.581 30.3055L364.46 37.359L361.172 38.2994Z" fill="#E6007A"/>
<path d="M634.986 110.244L632.638 103.191L635.456 101.78L638.744 99.8994L642.501 106.483L638.744 108.834L634.986 110.244Z" fill="#E6007A"/>
<path d="M496.435 138.928H492.678V131.405H496.435L500.192 130.934L500.662 138.458L496.435 138.928ZM427.394 138.458H419.88V130.934H427.394V138.458ZM354.596 137.988H347.082V130.464H354.596V137.988ZM281.798 137.988H274.284V130.464H281.798V137.988ZM209 137.988H201.486V130.464H209V137.988ZM136.672 137.988H129.157V130.464H136.202L136.672 137.988ZM63.8739 137.518H59.647L55.8896 137.047L56.3593 129.524L60.1166 129.994H63.8739V137.518ZM565.476 131.875L563.597 124.821L567.354 123.881L571.112 123.411L572.051 130.934L568.294 131.405L565.476 131.875ZM71.3886 118.238L69.9796 114.476L69.0403 110.714L72.7976 109.774L75.1459 116.827L71.3886 118.238ZM137.142 98.0183L134.793 90.9649L138.551 90.0244L142.308 89.0839L144.187 96.1374L140.429 97.0778L137.142 98.0183ZM207.122 77.3282L204.773 70.2748L208.531 69.3343L212.288 68.3939L214.167 75.4473L210.409 76.3878L207.122 77.3282ZM277.102 57.5786L274.753 50.5252L278.511 49.5847L282.268 48.6443L284.147 55.6977L280.389 56.6382L277.102 57.5786Z" fill="#E6007A"/>
<path d="M347.082 38.2994L345.203 31.246L352.248 29.3651L354.127 36.4185L347.082 38.2994Z" fill="#E6007A"/>
<path d="M557.961 107.423H550.447V114.947H557.961V107.423Z" fill="#E6007A"/>
<path d="M90.6453 115.417L90.1757 107.893L94.4027 107.423H98.16V114.947H93.933L90.6453 115.417ZM481.406 114.476H473.892V106.953H481.406V114.476ZM404.381 114.476H396.867V106.953H404.381V114.476ZM327.826 114.476H320.311V106.953H327.826V114.476ZM251.271 114.476H243.756V106.953H251.271V114.476ZM174.246 114.006H166.731V106.483H174.246V114.006ZM75.6161 101.31L72.7981 94.2566L79.8431 91.4352L82.6611 98.4887L75.6161 101.31ZM147.944 76.3879L145.596 69.3345L148.884 68.394L152.171 66.9833L154.52 74.0368L151.702 75.4475L147.944 76.3879Z" fill="#E6007A"/>
<path d="M221.682 54.2871L218.864 47.2337L223.091 45.823L226.848 44.8825L228.257 52.4062L224.97 52.8764L221.682 54.2871Z" fill="#E6007A"/>
<path d="M557.492 103.661H549.978V111.185H557.492V103.661Z" fill="#E6007A"/>
<path d="M100.978 111.655L100.508 104.131L104.735 103.661H108.023V111.185H104.266L100.978 111.655ZM482.815 110.714H475.301V103.191H482.815V110.714ZM407.669 110.714H400.154V103.191H407.669V110.714ZM332.992 110.714H325.478V103.191H332.992V110.714ZM257.846 110.714H250.331V103.191H257.846V110.714ZM183.169 110.244H175.655V102.721H183.169V110.244ZM79.8431 98.0183L77.9644 94.2565L76.5554 90.9649L79.8431 89.5542L82.6611 96.6076L79.8431 98.0183ZM146.535 74.5069L144.187 67.4534L147.475 66.513L150.762 65.1023L153.58 72.1557L149.823 73.5664L146.535 74.5069Z" fill="#E6007A"/>
<path d="M217.924 52.4061L216.046 44.8824L219.333 43.942L222.621 43.0015L225.439 50.055L221.212 51.4656L217.924 52.4061Z" fill="#E6007A"/>
<path d="M601.171 106.483H596.944V98.9589H600.232L603.989 98.4886L604.928 105.542L601.171 106.483Z" fill="#E6007A"/>
<path d="M526.494 106.953H518.979V99.4291H526.494V106.953ZM448.529 106.953H441.015V99.4291H448.529V106.953ZM370.565 106.953H363.05V99.4291H370.565V106.953ZM292.601 106.953H285.086V99.4291H292.601V106.953ZM214.636 106.483H207.122V98.9589H214.636V106.483ZM136.672 106.483H129.157V98.9589H136.672V106.483ZM77.0247 97.5482L73.7371 90.965L77.4944 89.084L80.782 87.6734L83.6 94.7268L80.3124 96.1375L77.0247 97.5482ZM149.823 71.2154L147.944 64.1619L151.232 63.2215L154.519 61.8108L157.337 68.8642L153.58 70.2749L149.823 71.2154ZM227.787 46.7635L226.848 43.0017L225.439 39.71L229.196 38.7696L231.544 45.823L227.787 46.7635Z" fill="#E6007A"/>
<path d="M298.707 25.6032L296.828 18.5498L300.116 17.6094L303.403 16.1987L306.221 23.2521L302.464 24.6628L298.707 25.6032Z" fill="#E6007A"/>
<path d="M599.292 96.1376H591.777V103.661H599.292V96.1376Z" fill="#E6007A"/>
<path d="M523.676 103.191H516.161V95.6673H523.676V103.191ZM448.06 103.191H440.545V95.6673H448.06V103.191ZM372.444 103.191H364.929V95.6673H372.444V103.191ZM296.828 103.191H289.313V95.6673H296.828V103.191ZM221.212 102.721H213.697V95.1971H221.212V102.721ZM145.596 102.721H138.081V95.1971H145.596V102.721ZM78.9034 95.6673L76.0854 89.0841L79.3731 87.6734L82.6608 86.2627L85.4787 93.3161L78.9034 95.6673ZM148.883 69.3345L146.535 62.2811L150.292 61.3406L153.58 59.9299L156.398 66.9833L152.641 68.394L148.883 69.3345ZM221.212 46.2933L218.863 39.2399L222.621 38.2994L226.378 37.3589L228.257 44.4124L221.212 46.2933Z" fill="#E6007A"/>
<path d="M293.54 24.6627L291.192 17.6093L294.949 16.6689L298.237 15.2582L300.585 22.3116L296.828 23.7223L293.54 24.6627Z" fill="#E6007A"/>
<path d="M570.173 92.3755H562.658V99.8992H570.173V92.3755Z" fill="#E6007A"/>
<path d="M131.976 99.8993L131.506 92.3757L135.733 91.9054H139.491V99.4291H135.733L131.976 99.8993ZM498.314 99.4291H490.8V91.9054H498.314V99.4291ZM426.456 99.4291H418.941V91.9054H426.456V99.4291ZM354.597 99.4291H347.082V91.9054H354.597V99.4291ZM282.738 99.4291H275.224V91.9054H282.738V99.4291ZM210.88 98.9589H203.365V91.4352H210.88V98.9589ZM84.5399 92.3757L81.2522 85.7925L84.5399 83.9115L87.8275 82.5009L91.1152 89.0841L84.5399 92.3757ZM151.232 66.9833L148.884 59.9299L152.172 58.9894L155.459 57.5787L158.277 64.6322L154.52 66.0429L151.232 66.9833Z" fill="#E6007A"/>
<path d="M219.803 44.8825L216.985 37.8291L220.742 36.4184L224.499 35.478L226.378 42.5314L219.803 44.8825Z" fill="#E6007A"/>
<path d="M650.125 86.0885L642.756 87.5639L644.229 94.9416L651.598 93.4662L650.125 86.0885Z" fill="#E6007A"/>
<path d="M580.036 96.1374H575.809L572.051 95.6672L572.521 88.1435L576.278 88.6138H580.036V96.1374ZM145.596 96.1374L145.126 88.6138L149.353 88.1435H153.11V95.6672H149.353L145.596 96.1374ZM508.647 96.1374H501.132V88.6138H508.647V96.1374ZM437.727 95.6672H430.213V88.1435H437.727V95.6672ZM366.338 95.6672H358.824V88.1435H366.338V95.6672ZM295.419 95.6672H287.904V88.1435H295.419V95.6672ZM224.03 95.6672H216.515V88.1435H224.03V95.6672ZM86.4181 92.3756L82.1912 86.2626L88.2968 82.0306L92.5238 88.1435L86.4181 92.3756ZM151.232 65.1023L148.884 58.0489L152.171 57.1084L155.459 55.6978L158.277 62.7512L154.989 64.1619L151.232 65.1023Z" fill="#E6007A"/>
<path d="M218.864 43.0015L216.516 35.9481L220.273 34.5374L223.561 33.5969L225.909 40.6504L218.864 43.0015Z" fill="#E6007A"/>
<path d="M613.852 84.8519H606.337V92.3756H613.852V84.8519Z" fill="#E6007A"/>
<path d="M541.053 92.3757H533.538V84.8521H541.053V92.3757ZM468.725 92.3757H461.21V84.8521H468.725V92.3757ZM396.396 91.9055H388.882V84.3818H396.396V91.9055ZM323.598 91.9055H316.084V84.3818H323.598V91.9055ZM251.27 91.9055H243.755V84.3818H251.27V91.9055ZM178.472 91.9055H170.957V84.3818H178.472V91.9055ZM105.674 90.965L98.1594 89.5543L99.0988 82.0307L106.613 82.9711L105.674 90.965ZM153.58 63.2215L151.232 56.1681L154.519 55.2277L157.807 53.817L160.625 60.8704L156.868 62.2811L153.58 63.2215ZM225.908 38.7697L224.499 35.0078L223.56 31.246L227.317 30.3055L229.665 37.8292L225.908 38.7697Z" fill="#E6007A"/>
<path d="M296.771 9.28155L289.481 11.1075L291.305 18.4062L298.595 16.5803L296.771 9.28155Z" fill="#E6007A"/>
<path d="M655.652 81.5603H648.137V89.084H655.652V81.5603Z" fill="#E6007A"/>
<path d="M118.826 89.0841H114.599L110.841 88.6138L111.311 81.0902L115.068 81.5604H118.826V89.0841ZM579.097 88.6138H571.582V81.0902H579.097V88.6138ZM502.542 88.6138H495.027V81.0902H502.542V88.6138ZM425.517 88.6138H418.002V81.0902H425.517V88.6138ZM348.961 88.6138H341.447V81.0902H348.961V88.6138ZM272.406 88.1436H264.891V80.6199H272.406V88.1436ZM195.851 88.1436H188.336V80.6199H195.851V88.1436ZM153.111 62.281L150.293 55.2276L154.05 53.8169L157.808 52.8765L160.156 59.9299L156.868 60.8703L153.111 62.281Z" fill="#E6007A"/>
<path d="M225.439 37.359L223.561 29.8353L226.848 28.8949L230.136 27.9544L232.954 35.0078L228.727 36.4185L225.439 37.359Z" fill="#E6007A"/>
<path d="M658 77.7985H650.485V85.3222H658V77.7985Z" fill="#E6007A"/>
<path d="M132.446 85.7924H124.931V78.2687H132.446V85.7924ZM582.854 85.3222H575.339V77.7985H582.854V85.3222ZM507.708 84.8519H500.193V77.3283H507.708V84.8519ZM432.561 84.8519H425.047V77.3283H432.561V84.8519ZM357.415 84.8519H349.9V77.3283H357.415V84.8519ZM282.738 84.8519H275.224V77.3283H282.738V84.8519ZM207.592 84.3817H200.077V76.8581H207.592V84.3817ZM155.929 60.4001L153.111 53.3466L156.868 51.9359L160.626 50.9955L162.974 58.0489L159.686 58.9894L155.929 60.4001Z" fill="#E6007A"/>
<path d="M227.317 35.9482L224.03 28.8947L228.257 27.0138L231.544 26.0734L233.893 33.1268L230.605 34.0672L227.317 35.9482Z" fill="#E6007A"/>
<path d="M632.169 74.0367H624.654V81.5604H632.169V74.0367Z" fill="#E6007A"/>
<path d="M555.143 81.5604H547.629V74.0368H555.143V81.5604ZM477.649 81.5604H470.134V74.0368H477.649V81.5604ZM400.154 81.5604H392.639V74.0368H400.154V81.5604ZM322.659 81.0902H315.145V73.5665H322.659V81.0902ZM245.634 81.0902H238.12V73.5665H245.634V81.0902ZM168.14 81.0902H160.625V73.5665H168.14V81.0902ZM148.414 62.7513L145.596 55.6979L148.884 54.2872L152.171 52.8765L155.459 59.4597L152.171 61.3406L148.414 62.7513ZM221.212 36.4185L218.394 29.3651L222.151 27.9544L225.909 27.0139L227.787 34.0673L224.5 35.0078L221.212 36.4185Z" fill="#E6007A"/>
<path d="M297.767 11.026L296.828 7.26416L295.889 3.97256L296.828 7.26416L295.889 3.97256H296.358L299.646 3.0321L301.525 10.0855L297.767 11.026Z" fill="#E6007A"/>
<path d="M606.807 70.7451H599.292V78.2688H606.807V70.7451Z" fill="#E6007A"/>
<path d="M159.217 78.7391H151.702V71.2154H159.217V78.7391ZM532.13 78.2688H524.615V70.7452H532.13V78.2688ZM457.923 77.7986H450.408V70.275H457.923V77.7986ZM383.246 77.7986H375.732V70.275H383.246V77.7986ZM308.57 77.7986H301.055V70.275H308.57V77.7986ZM233.893 77.7986H226.379V70.275H233.893V77.7986ZM170.019 53.8169L168.61 50.5253L167.201 47.2337L170.488 45.8231L173.306 52.8765L170.019 53.8169Z" fill="#E6007A"/>
<path d="M235.771 29.8351L234.362 22.3115L237.65 21.8412L238.589 25.1328L239.998 28.8947H239.529L235.771 29.8351Z" fill="#E6007A"/>
<path d="M611.504 67.4534H603.989V74.9771H611.504V67.4534Z" fill="#E6007A"/>
<path d="M173.306 74.9772H165.792V67.4536H173.306V74.9772ZM538.705 74.507H531.191V66.9833H538.705V74.507ZM465.438 74.507H457.923V66.9833H465.438V74.507ZM392.64 74.507H385.125V66.9833H392.64V74.507ZM319.372 74.507H311.857V66.9833H319.372V74.507ZM246.574 74.0368H239.059V66.5131H246.574V74.0368ZM170.958 53.3467L168.14 46.2933L171.897 44.8826L175.185 43.4719L178.003 50.5253L170.958 53.3467Z" fill="#E6007A"/>
<path d="M239.059 27.9543L236.71 20.9009L240.468 19.9604L242.816 27.0139L239.059 27.9543Z" fill="#E6007A"/>
<path d="M654.712 64.1618H647.198V71.6855H654.712V64.1618Z" fill="#E6007A"/>
<path d="M584.732 71.2154H577.218V63.6917H584.732V71.2154ZM514.752 71.2154H507.238V63.6917H514.752V71.2154ZM445.242 71.2154H437.727V63.6917H445.242V71.2154ZM375.262 71.2154H367.747V63.6917H375.262V71.2154ZM305.282 70.7451H297.767V63.2215H305.282V70.7451ZM235.302 70.7451H227.787V63.2215H235.302V70.7451ZM164.852 70.2749L157.338 69.8047L157.807 62.281L165.322 62.7512L164.852 70.2749Z" fill="#E6007A"/>
<path d="M203.975 32.3907L197.002 35.1956L199.804 42.1768L206.776 39.3719L203.975 32.3907Z" fill="#E6007A"/>
<path d="M631.229 60.4H623.715V67.9237H631.229V60.4Z" fill="#E6007A"/>
<path d="M193.502 68.3939L193.032 60.8703L197.259 60.4H201.017V67.9237H197.259L193.502 68.3939ZM559.371 67.9237H551.856V60.4H559.371V67.9237ZM487.512 67.9237H479.997V60.4H487.512V67.9237ZM416.123 67.4535H408.608V59.9298H416.123V67.4535ZM344.264 67.4535H336.75V59.9298H344.264V67.4535ZM272.406 67.4535H264.891V59.9298H272.406V67.4535ZM185.048 49.1145L182.23 42.0611L185.518 40.6504L188.805 39.2397L192.093 45.8229L188.336 47.2336L185.048 49.1145Z" fill="#E6007A"/>
<path d="M251.741 22.7817L249.392 15.7282L252.68 14.7878L255.028 21.8412L251.741 22.7817Z" fill="#E6007A"/>
<path d="M607.746 57.1084H600.231V64.6321H607.746V57.1084Z" fill="#E6007A"/>
<path d="M538.236 64.6321H530.721V57.1084H538.236V64.6321ZM468.726 64.6321H461.211V57.1084H468.726V64.6321ZM399.685 64.1619H392.17V56.6382H399.685V64.1619ZM330.175 64.1619H322.66V56.6382H330.175V64.1619ZM260.664 64.1619H253.15V56.6382H260.664V64.1619ZM191.154 63.6916L187.396 63.2214H183.639V55.6978H187.866L191.623 56.168L191.154 63.6916Z" fill="#E6007A"/>
<path d="M219.964 26.787L212.991 29.5918L215.792 36.573L222.765 33.7682L219.964 26.787Z" fill="#E6007A"/>
<path d="M652.364 53.817H644.85V61.3406H652.364V53.817Z" fill="#E6007A"/>
<path d="M222.152 61.8107L221.682 54.2871L225.909 53.8169H229.666V61.3405H225.909L222.152 61.8107ZM581.915 61.3405H574.4V53.8169H581.915V61.3405ZM511.465 61.3405H503.951V53.8169H511.465V61.3405ZM441.016 61.3405H433.501V53.8169H441.016V61.3405ZM370.566 60.8703H363.051V53.3466H370.566V60.8703ZM300.116 60.8703H292.602V53.3466H300.116V60.8703ZM201.017 44.4123L197.729 37.8291L201.017 35.9482L204.305 34.5375L207.592 41.1207L201.017 44.4123Z" fill="#E6007A"/>
<path d="M265.361 17.6092L263.482 10.0856L267.239 9.61536L268.179 12.907L269.118 16.6688H268.648L265.361 17.6092Z" fill="#E6007A"/>
<path d="M591.777 50.5253H584.262V58.049H591.777V50.5253Z" fill="#E6007A"/>
<path d="M238.12 58.5192L237.65 50.9955L241.877 50.5253H245.634V58.0489H241.877L238.12 58.5192ZM522.736 58.0489H515.222V50.5253H522.736V58.0489ZM453.226 58.0489H445.711V50.5253H453.226V58.0489ZM384.185 57.5787H376.671V50.0551H384.185V57.5787ZM314.675 57.5787H307.16V50.0551H314.675V57.5787ZM208.531 43.0016L205.243 36.4184L208.531 34.5375L211.818 33.1268L215.106 39.71L208.531 43.0016Z" fill="#E6007A"/>
<path d="M276.272 6.73015L269.143 9.10913L271.519 16.2468L278.648 13.8678L276.272 6.73015Z" fill="#E6007A"/>
<path d="M637.804 47.7038H630.29V55.2274H637.804V47.7038Z" fill="#E6007A"/>
<path d="M559.37 54.7573H551.855V47.2336H559.37V54.7573ZM480.466 54.7573H472.952V47.2336H480.466V54.7573ZM402.032 54.7573H394.518V47.2336H402.032V54.7573ZM323.129 54.287H315.614V47.2336H323.129V54.287ZM244.695 54.287H240.468L236.71 53.8168L237.18 46.2932L240.937 46.7634H244.695V54.287Z" fill="#E6007A"/>
<path d="M242.347 28.8948L239.529 21.8413L242.816 20.9009L245.634 19.02L249.392 25.1329L245.634 27.4841L242.347 28.8948Z" fill="#E6007A"/>
<path d="M616.2 44.4124H608.686V51.9361H616.2V44.4124Z" fill="#E6007A"/>
<path d="M291.662 51.936L291.192 44.4123L295.419 43.9421H299.176V51.4658H295.419L291.662 51.936ZM536.827 51.936H529.312V44.4123H536.827V51.936ZM457.453 51.4658H449.939V43.9421H457.453V51.4658ZM378.08 51.4658H370.565V43.9421H378.08V51.4658ZM221.212 46.7635L215.106 42.5314L216.985 39.7101L218.864 36.4185L225.439 40.1803L223.56 43.9421L221.212 46.7635Z" fill="#E6007A"/>
<path d="M288.374 11.026L286.025 3.9726L289.313 3.03215L292.601 1.62146L295.888 8.20466L292.131 10.0856L288.374 11.026Z" fill="#E6007A"/>
<path d="M594.125 41.1207H586.611V48.6444H594.125V41.1207Z" fill="#E6007A"/>
<path d="M514.752 48.6443H507.238V41.1206H514.752V48.6443ZM435.379 48.6443H427.864V41.1206H435.379V48.6443ZM355.536 48.174H348.021V40.6504H355.536V48.174ZM276.163 48.174H268.648V40.6504H276.163V48.174Z" fill="#E6007A"/>
<path d="M263.012 23.7223L260.194 16.6689L263.481 15.2582L266.299 13.8475L270.057 19.9605L266.299 22.3116L263.012 23.7223Z" fill="#E6007A"/>
<path d="M642.032 38.2993H634.517V45.8229H642.032V38.2993Z" fill="#E6007A"/>
<path d="M309.978 45.823L309.509 38.2993L313.266 37.8291H317.023V45.3528H313.266L309.978 45.823ZM560.779 45.823H553.264V38.2993H560.779V45.823ZM479.527 45.3528H472.012V37.8291H479.527V45.3528ZM398.275 45.3528H390.76V37.8291H398.275V45.3528Z" fill="#E6007A"/>
<path d="M253.15 33.1268L249.392 26.5436L252.21 25.1329L255.028 22.7817L259.725 28.4245L256.437 31.2458L253.15 33.1268Z" fill="#E6007A"/>
<path d="M621.366 35.0078H613.851V42.5315H621.366V35.0078Z" fill="#E6007A"/>
<path d="M542.932 42.5314H535.418V35.0077H542.932V42.5314ZM464.498 42.5314H456.984V35.0077H464.498V42.5314ZM385.595 42.5314H378.08V35.0077H385.595V42.5314ZM307.161 42.0611H299.646V34.5375H307.161V42.0611Z" fill="#E6007A"/>
<path d="M285.086 18.5497L282.738 11.4962L286.025 10.5558L288.843 8.67487L292.601 15.2581L289.313 17.139L285.086 18.5497Z" fill="#E6007A"/>
<path d="M600.701 32.1863H593.187V39.71H600.701V32.1863Z" fill="#E6007A"/>
<path d="M342.855 39.7101L342.385 32.1864L346.612 31.7162H350.369V39.2398H346.612L342.855 39.7101ZM517.1 39.7101H509.586V32.1864H517.1V39.7101ZM433.5 39.2398H425.985V32.1864H433.5V39.2398Z" fill="#E6007A"/>
<path d="M280.859 17.3613L275.545 22.6813L280.859 28.0013L286.172 22.6813L280.859 17.3613Z" fill="#E6007A"/>
<path d="M650.016 29.3651H642.501V36.8887H650.016V29.3651Z" fill="#E6007A"/>
<path d="M572.521 36.8885H565.007V29.3649H572.521V36.8885ZM495.027 36.8885H487.512V29.3649H495.027V36.8885ZM417.532 36.4183H410.017V28.8947H417.532V36.4183ZM340.037 36.4183H332.523V28.8947H340.037V36.4183Z" fill="#E6007A"/>
<path d="M309.978 13.8474L307.16 6.79397L310.448 5.85351L313.266 3.9726L317.023 10.0856L313.266 12.4367L309.978 13.8474Z" fill="#E6007A"/>
<path d="M597.883 26.5435H590.368V34.0672H597.883V26.5435Z" fill="#E6007A"/>
<path d="M518.04 34.0673H510.526V26.5436H518.04V34.0673ZM438.197 33.597H430.683V26.0734H438.197V33.597ZM358.824 33.597H351.309V26.0734H358.824V33.597Z" fill="#E6007A"/>
<path d="M324.069 11.4963L320.781 4.91314L327.356 1.15131L330.644 7.73451L324.069 11.4963Z" fill="#E6007A"/>
<path d="M649.077 23.7222H641.562V31.2459H649.077V23.7222Z" fill="#E6007A"/>
<path d="M391.23 31.2459L390.761 23.7222H394.988H398.745V31.2459H394.988H391.23ZM565.476 31.2459H557.961V23.7222H565.476V31.2459ZM482.345 30.7757H474.831V23.7222H482.345V30.7757Z" fill="#E6007A"/>
<path d="M323.525 9.67246L318.211 14.9924L323.525 20.3124L328.839 14.9924L323.525 9.67246Z" fill="#E6007A"/>
<path d="M629.82 20.9009H622.305V28.4246H629.82V20.9009Z" fill="#E6007A"/>
<path d="M557.491 28.4246H549.977V20.9009H557.491V28.4246ZM485.633 28.4246H478.118V20.9009H485.633V28.4246ZM413.304 27.9544H405.79V20.9009H413.304V27.9544Z" fill="#E6007A"/>
<path d="M338.333 14.8392L332.323 19.3549L336.834 25.3723L342.844 20.8566L338.333 14.8392Z" fill="#E6007A"/>
<path d="M610.563 18.0795H603.049V25.6031H610.563V18.0795Z" fill="#E6007A"/>
<path d="M414.714 26.0734H407.199V18.5497H414.714V26.0734ZM545.28 25.6031H537.766V18.0795H545.28V25.6031ZM479.997 25.6031H472.482V18.0795H479.997V25.6031Z" fill="#E6007A"/>
<path d="M356.006 15.2581L349.9 11.0261L351.779 7.73446L354.127 4.91309L360.233 9.61537L357.884 12.4367L356.006 15.2581Z" fill="#E6007A"/>
<path d="M629.82 15.7283H622.305V23.252H629.82V15.7283Z" fill="#E6007A"/>
<path d="M432.561 23.2521H425.046V15.7284H432.561V23.2521ZM564.067 23.2521H556.552V15.7284H564.067V23.2521ZM498.314 22.7818H490.799V15.2582H498.314V22.7818Z" fill="#E6007A"/>
<path d="M372.914 12.907L366.338 9.61538L368.217 5.85355L370.096 2.56195L376.671 6.79401L374.323 9.61538L372.914 12.907Z" fill="#E6007A"/>
<path d="M611.034 12.907H603.519V20.4307H611.034V12.907Z" fill="#E6007A"/>
<path d="M538.705 20.4307H531.191V12.907H538.705V20.4307ZM465.907 20.4307H458.393V12.907H465.907V20.4307Z" fill="#E6007A"/>
<path d="M392.17 17.6092L388.413 15.7283L385.125 13.8473L389.352 7.73438L392.17 9.61529L395.458 11.026L392.17 17.6092Z" fill="#E6007A"/>
<path d="M591.777 10.5559H584.262V18.0796H591.777V10.5559Z" fill="#E6007A"/>
<path d="M510.995 10.5559H503.48V18.0796H510.995V10.5559Z" fill="#E6007A"/>
<path d="M429.743 10.0855H422.228V17.6092H429.743V10.0855Z" fill="#E6007A"/>
<path d="M612.443 8.20477H604.928V15.7284H612.443V8.20477Z" fill="#E6007A"/>
<path d="M531.19 7.73438H523.676V15.258H531.19V7.73438Z" fill="#E6007A"/>
<path d="M449.938 7.73438H442.424V15.258H449.938V7.73438Z" fill="#E6007A"/>
<path d="M593.656 5.85358H586.141V13.3772H593.656V5.85358Z" fill="#E6007A"/>
<path d="M522.267 5.38324H514.753V12.9069H522.267V5.38324Z" fill="#E6007A"/>
<path d="M449.469 10.5558L445.711 9.14508L442.424 7.26417L445.711 0.680969L448.999 2.56188L452.287 3.50234L449.469 10.5558Z" fill="#E6007A"/>
<path d="M596.944 1.15131H589.429V8.67496H596.944V1.15131Z" fill="#E6007A"/>
<path d="M555.613 1.15131H548.098V8.67496H555.613V1.15131Z" fill="#E6007A"/>
<path d="M513.813 8.2047H509.586L505.828 7.73447L507.237 0.210815L510.525 0.681044H513.813V8.2047Z" fill="#E6007A"/>
<path d="M332.522 240.498C318.432 240.498 305.281 240.027 293.07 239.087C281.798 238.617 271.466 238.146 261.133 238.146C225.908 238.146 188.335 238.146 146.535 238.146H106.144C72.3279 238.146 53.0716 237.676 52.6019 233.914C51.6626 230.623 58.7076 225.92 110.84 212.284C207.591 186.892 371.504 145.511 540.583 105.542H541.053V106.482H540.583C371.504 146.452 207.591 187.832 110.84 213.224C71.8582 223.569 52.6019 230.153 53.0716 233.444C53.5413 237.206 78.9032 237.206 106.144 237.206H146.535C188.335 237.206 225.908 237.206 261.133 237.206C271.935 237.206 282.268 237.676 293.07 238.146C328.295 240.027 368.686 241.908 433.5 228.272C521.797 209.462 541.053 167.612 548.568 129.053C550.916 117.768 551.855 106.482 552.795 95.6672C556.082 64.6321 558.9 35.4779 582.853 16.1986L583.323 15.7283L583.793 16.1986H583.323C559.84 35.4779 557.022 64.1619 553.734 95.197C552.795 106.012 551.386 117.768 549.507 128.583C541.992 167.612 522.266 209.933 433.5 228.742C391.7 238.146 359.763 240.498 332.522 240.498Z" fill="#E6007A"/>
<path d="M359.763 224.51L92.9936 224.04C59.6474 224.04 40.3912 223.569 39.9215 219.808C39.4518 217.456 44.6181 213.224 85.9486 202.409C159.216 182.66 292.601 147.863 446.651 110.715H447.121V111.655H446.651C292.601 149.273 159.686 183.6 86.4183 203.35C55.8901 211.814 40.3912 217.456 40.8608 220.278C41.3305 224.04 66.6924 224.04 92.9936 224.04L359.293 224.51C397.806 224.51 512.874 199.588 539.645 167.142C561.719 140.339 564.537 107.893 567.355 76.3878C567.824 69.8046 568.294 63.2214 569.233 57.1085V56.6382H570.173V57.1085C569.233 63.2214 568.764 70.2749 568.294 76.3878C565.476 107.893 562.658 140.809 540.114 167.612C513.813 200.058 398.745 224.51 359.763 224.51Z" fill="#E6007A"/>
<path d="M35.2249 222.159C17.3776 222.159 9.39331 221.689 9.39331 220.278C9.39331 219.808 9.86297 219.337 10.8023 218.867C26.3012 212.754 116.007 188.773 228.727 159.618C298.237 141.75 426.455 109.304 572.991 74.507C572.991 72.6261 573.46 71.2154 573.46 69.3345C574.869 49.1146 576.278 30.3055 582.854 13.3773V12.907L583.323 13.3773V13.8475C576.748 30.3055 575.339 49.5849 573.93 69.3345C573.93 70.7452 573.46 72.6261 573.46 74.0368C598.353 68.394 623.245 62.2811 649.076 56.6383H649.546V57.5788H649.076C623.714 63.6917 598.353 69.3345 573.46 75.4475C572.051 90.965 570.642 106.483 566.415 122C560.779 142.69 550.917 159.148 536.357 172.785C518.51 189.243 493.617 200.998 460.271 208.992C402.503 223.099 356.475 221.689 318.902 220.748C310.448 220.748 302.934 220.278 295.419 220.278C255.498 220.278 213.228 220.278 166.731 220.278H165.792C150.762 220.278 128.688 220.748 105.205 221.218C73.2677 221.689 50.7238 222.159 35.2249 222.159ZM9.86297 220.278C12.2113 222.629 63.4047 221.218 104.735 220.278C128.218 219.808 150.293 219.337 165.322 219.337H166.261C212.758 219.337 255.028 219.337 294.949 219.337C302.464 219.337 309.979 219.337 318.433 219.808C355.536 220.748 401.563 222.159 459.332 208.052C492.678 200.058 517.101 188.302 534.948 171.844C549.508 158.678 559.37 142.22 565.006 121.53C569.233 106.483 570.642 90.965 572.051 75.4475C425.986 109.774 297.298 142.22 228.257 160.089C115.537 189.243 25.8316 213.695 10.3326 219.337C10.3326 219.808 9.86297 219.808 9.86297 220.278Z" fill="#E6007A"/>
<path d="M344.264 217.927C332.053 217.927 322.19 217.456 312.796 216.986C303.403 216.516 294.48 216.046 284.147 216.046H158.747H157.807C143.248 216.046 121.643 216.516 99.0992 216.986C34.7551 217.927 7.51459 217.927 7.04492 215.576C7.04492 215.105 7.51459 214.635 8.45392 214.165C22.5438 208.522 102.856 186.421 207.592 159.618C277.572 141.279 416.592 106.012 577.687 67.9238C577.687 66.5131 577.687 64.6322 578.157 63.2215C578.627 53.8169 579.566 45.3528 580.505 36.8887V36.4185H581.445V36.8887C580.505 45.3528 579.566 54.2871 579.096 63.2215C579.096 64.6322 579.096 66.0429 578.627 67.9238C585.202 66.5131 592.247 64.6322 598.822 63.2215H599.292V64.1619H598.822C591.777 65.5726 585.202 67.4535 578.157 68.8642C576.278 93.7863 573.93 119.179 561.719 141.75C551.856 159.618 537.296 173.725 517.101 185.011C493.617 198.177 462.619 206.641 423.168 211.814C386.534 216.516 363.051 217.927 344.264 217.927ZM157.807 214.635H158.747H284.147C294.949 214.635 303.403 215.105 312.796 215.576C337.219 216.986 362.581 218.397 423.168 210.403C462.619 205.231 493.148 196.296 516.631 183.6C536.826 172.315 551.386 158.208 561.249 140.339C573.46 117.768 575.809 92.8459 577.687 67.9238C416.592 106.012 277.572 141.279 207.592 159.618C102.856 187.362 23.0135 209.463 8.92358 215.105C8.45392 215.105 7.98425 215.576 7.98425 215.576C10.8022 217.927 59.6473 216.516 99.0992 215.576C121.643 215.105 143.248 214.635 157.807 214.635Z" fill="#E6007A"/>
<path d="M26.7712 203.82C10.8027 203.82 3.28802 203.35 2.81836 201.939C2.81836 201.469 3.75769 200.998 3.75769 200.998C15.969 195.826 80.313 177.487 172.367 153.035C277.102 125.292 399.215 94.2566 516.162 66.0428H516.631V66.9833H516.162C399.215 95.197 277.572 126.232 172.837 153.976C80.7827 178.427 15.969 196.766 4.22735 201.939C3.75769 201.939 3.75769 202.409 3.75769 202.409C6.10601 204.76 52.6028 203.35 89.7063 202.409C111.781 201.939 132.446 201.469 146.536 201.469C189.745 201.469 229.666 201.469 267.24 201.469H375.262C409.548 201.469 508.647 186.892 543.872 162.91C580.975 137.518 588.96 103.661 591.778 73.5665V73.0963H592.717V73.5665C589.429 103.661 581.445 137.988 544.342 163.38C509.117 187.362 410.018 201.939 375.262 201.939H267.24C229.666 201.939 189.745 201.939 146.536 201.939H145.596C131.506 201.939 111.311 202.409 89.7063 202.879C61.5264 203.82 40.8612 203.82 26.7712 203.82Z" fill="#E6007A"/>
<path d="M24.8917 199.588C9.39281 199.588 1.87817 199.118 1.87817 197.707C1.87817 197.237 2.34784 196.766 2.8175 196.766C14.0895 192.064 72.3279 175.136 158.746 152.095C254.088 126.702 368.217 97.0779 480.466 69.8046H480.936V70.7451H480.466C368.217 97.5481 254.088 127.173 158.746 152.565C72.3279 175.606 14.0895 192.534 3.28717 197.237C2.8175 197.237 2.8175 197.707 2.8175 197.707C5.16583 199.588 49.784 198.647 85.4785 197.707C106.144 197.237 125.87 196.766 139.49 196.766H140.429C174.715 196.766 206.652 196.766 237.18 196.766H363.99H364.459C392.169 196.766 479.057 192.064 525.554 171.374C563.597 154.446 585.202 129.524 593.656 92.3756V91.9054H594.595V92.3756C586.141 129.524 564.536 154.446 526.024 171.844C479.057 193.475 392.169 197.707 364.459 197.707H363.99H237.18C206.652 197.707 174.715 197.707 140.429 197.707H139.49C125.87 197.707 106.144 198.177 85.4785 198.647C58.7076 199.118 38.9817 199.588 24.8917 199.588Z" fill="#E6007A"/>
<path d="M361.172 195.826C350.37 195.826 342.856 195.356 335.341 194.885C328.296 194.415 320.781 193.945 309.979 193.945L73.2681 193.005C42.2702 193.005 23.014 192.534 22.5443 188.772C22.0747 186.892 25.3623 184.07 50.2545 177.017C104.736 161.029 193.972 137.047 295.419 110.715C377.141 89.5542 504.89 57.1085 646.728 23.7222H647.198V24.6627H646.728C504.89 58.0489 377.141 90.4947 294.95 111.655C193.972 137.988 104.266 161.969 49.7849 177.957C27.241 184.54 22.5443 187.832 22.5443 189.243C23.014 192.534 48.3759 192.534 72.7984 192.534H309.979C320.781 192.534 328.296 193.004 335.341 193.475C351.779 194.885 368.687 195.826 423.638 191.124C495.497 185.011 544.342 168.082 572.052 139.869C597.414 114.006 602.58 82.5008 603.989 51.9359V51.4657H604.928V51.9359C603.519 82.5008 598.353 114.476 572.991 140.339C545.281 168.553 496.436 185.481 424.108 191.594C393.579 194.885 374.793 195.826 361.172 195.826Z" fill="#E6007A"/>
<path d="M401.094 189.243H301.525C270.527 189.243 238.59 189.243 204.774 189.243H193.502C155.459 189.243 114.599 189.243 70.4501 189.243C37.1039 189.243 21.1353 188.773 20.6656 185.011C20.196 183.13 23.014 180.779 45.5579 173.725C95.3423 159.148 178.473 136.577 273.815 111.655C349.9 91.9055 469.665 61.3406 607.277 27.9544H607.746V28.8949H607.277C469.665 61.8109 350.37 92.3757 273.815 112.596C178.943 137.047 95.812 159.618 46.0275 174.195C25.3623 180.308 21.1353 183.13 21.605 184.541C22.0746 187.832 47.9062 187.832 70.4501 187.832C114.599 187.832 154.99 187.832 193.502 187.832H204.774C238.59 187.832 270.997 187.832 301.525 187.832H401.094C431.622 187.832 526.964 171.844 559.84 149.744C587.551 131.405 602.58 106.012 607.277 70.275V69.8047H608.216V70.275C603.05 106.483 588.02 131.875 560.31 150.214C527.434 173.255 432.092 189.243 401.094 189.243Z" fill="#E6007A"/>
<path d="M392.17 185.011L172.367 184.54C139.96 184.54 105.205 184.54 68.5709 184.54C35.6944 184.54 20.1955 184.07 19.7258 180.308C19.7258 178.898 22.0742 176.076 42.7394 169.963C88.2968 156.327 165.791 135.166 255.497 111.185C326.417 92.3755 438.667 63.6916 571.582 31.2458H572.051V32.1862H571.582C438.667 64.632 326.417 93.316 255.497 112.125C165.791 135.637 87.8272 157.267 42.7394 170.904C23.9528 176.546 20.1955 179.368 20.1955 180.308C20.6652 183.6 46.027 183.6 68.5709 183.6C105.205 183.6 139.49 183.6 172.367 183.6L391.7 184.07H392.17C426.455 184.07 506.768 175.136 544.811 157.737C579.566 141.75 600.231 119.179 609.624 86.7328V86.2625H610.564V86.7328C601.17 119.179 580.505 142.22 545.75 158.208C506.768 176.076 426.455 185.011 392.17 185.011Z" fill="#E6007A"/>
<path d="M392.17 181.719C382.307 181.719 374.323 181.249 366.339 180.779C358.824 180.308 351.309 179.838 342.386 179.838L129.628 179.368H128.688C116.007 179.368 97.6905 179.838 77.9646 180.308C25.8319 182.189 1.4093 182.66 0.469971 180.308C0.469971 179.838 0.939635 179.368 1.4093 179.368C10.3329 175.136 54.4814 161.499 126.34 141.75C200.077 121.06 295.419 96.1375 394.049 70.7451H394.519V71.6856H394.049C295.419 97.0779 200.547 122 126.34 142.69C55.4207 162.44 10.3329 176.076 1.4093 180.308H0.939635C3.28796 182.189 44.6184 181.249 77.9646 180.308C97.2209 179.838 115.538 179.368 128.688 179.368H129.628L342.386 179.838C351.309 179.838 358.354 180.308 366.339 180.779C387.004 181.719 408.139 182.66 457.454 177.017C519.449 169.963 562.658 153.976 588.49 129.053C614.322 104.131 619.488 73.5665 620.897 50.0551V49.5848H621.836V50.0551C620.897 66.5131 618.079 80.1497 613.852 91.9054C608.685 106.483 600.232 118.708 589.429 129.524C563.128 154.446 520.389 170.434 457.923 177.487C427.395 180.779 407.669 181.719 392.17 181.719Z" fill="#E6007A"/>
<path d="M22.5438 177.487C8.45384 177.487 1.40887 177.017 0.939209 175.606C0.939209 175.136 1.40887 174.666 1.40887 174.666C9.39317 170.434 51.1933 157.737 117.886 138.928C185.987 119.649 275.693 95.6673 369.626 71.6856H370.096V72.6261H369.626C275.693 97.078 185.987 120.589 117.886 139.869C50.7236 158.678 9.39317 171.374 1.40887 175.606C1.40887 175.606 1.40887 175.606 0.939209 175.606C3.28753 177.487 43.209 176.547 75.6159 175.606C94.4025 175.136 112.25 174.666 124.931 174.666H126.809L428.334 175.136C458.392 175.136 548.568 157.267 578.627 137.047C604.458 119.649 619.487 96.6077 624.654 65.1024V64.6322H625.593V65.1024C619.957 97.078 605.397 120.119 579.096 137.518C549.038 157.737 458.392 175.606 428.334 175.606H126.809C114.128 175.606 95.8114 176.076 76.5552 176.547C53.072 177.017 35.2247 177.487 22.5438 177.487Z" fill="#E6007A"/>
<path d="M418.471 168.553C410.017 168.553 402.033 168.553 394.988 168.082C387.943 168.082 381.838 167.612 374.793 167.612C344.734 167.612 313.736 167.612 281.329 167.612L66.223 167.142C33.3465 167.142 19.7263 166.672 19.2566 163.38C19.2566 161.969 20.6656 159.618 36.6342 154.446C72.3287 143.16 134.794 125.292 212.289 104.131C294.95 81.5604 388.883 57.1085 483.755 33.1268H484.224V34.0673H483.755C388.883 58.0489 294.95 82.5008 212.289 105.072C134.794 126.232 72.3287 144.101 36.6342 155.386C21.6049 160.089 19.2566 162.44 19.7263 163.38C20.1959 166.672 45.5578 166.672 66.223 166.672L281.329 167.142C313.736 167.142 344.734 167.142 374.793 167.142C381.368 167.142 387.943 167.142 394.988 167.612C418.002 168.082 444.303 169.023 489.86 162.44C544.342 154.446 582.384 139.869 606.807 117.298C626.063 99.4291 636.396 76.3879 639.214 45.3528V44.8825H640.153V45.3528C637.335 76.8581 627.002 99.8993 607.746 118.238C583.324 140.809 545.281 155.856 490.33 163.85C458.863 167.142 436.788 168.553 418.471 168.553Z" fill="#E6007A"/>
<path d="M413.774 164.791C404.381 164.791 397.806 164.321 391.23 163.85C384.655 163.38 378.08 162.91 369.156 162.91H253.619C229.196 162.91 203.834 162.91 177.533 162.91H66.2226C34.7551 162.91 20.1955 162.44 19.7258 159.148C19.7258 157.737 21.1348 155.386 35.6944 150.684C69.0406 139.869 127.749 122.94 201.016 102.721C278.041 81.5603 367.278 58.0489 458.862 34.5375H459.332V35.4779H458.862C367.278 58.9894 278.511 82.5008 201.016 103.661C127.749 123.881 69.0406 140.809 35.6944 151.624C21.6045 155.856 19.7258 158.208 20.1955 159.148C20.6652 162.44 45.5574 162.44 65.753 162.44H177.063C203.365 162.44 228.727 162.44 253.149 162.44H368.687C377.61 162.44 384.655 162.91 390.761 163.38C405.32 164.321 420.35 165.261 464.968 161.499C525.085 156.327 568.764 144.101 598.353 124.821C622.305 108.834 636.865 87.2031 642.501 58.9894V58.5191H643.44V58.9894C637.804 87.2031 623.245 109.304 598.822 125.292C569.233 145.041 525.555 157.267 464.968 162.44C441.015 164.321 425.046 164.791 413.774 164.791Z" fill="#E6007A"/>
<path d="M449.939 159.148H417.062C399.685 159.148 381.837 159.148 363.521 159.148L65.7533 158.678C34.7554 158.678 20.6655 158.208 20.1958 154.916C20.1958 153.505 21.6048 151.624 35.2251 146.922C66.6926 136.577 120.234 121.059 190.684 101.31C263.012 81.0901 348.022 58.5191 435.849 35.9481H436.319V36.8886H435.849C348.022 59.4596 263.012 82.0305 190.684 102.25C120.234 121.53 66.6926 137.517 35.2251 147.863C22.5441 152.095 20.6655 153.976 21.1351 154.916C21.6048 158.208 47.4363 158.208 66.2229 158.208L363.99 158.678C381.837 158.678 399.685 158.678 417.532 158.678H449.939C477.179 158.678 555.613 146.452 588.49 130.464C617.609 116.357 636.396 96.6076 645.319 71.2153V70.745L645.789 71.2153V71.6855C636.396 97.5481 617.609 117.298 588.49 131.405C556.083 146.922 477.179 159.148 449.939 159.148Z" fill="#E6007A"/>
<path d="M459.332 142.69C456.044 142.69 452.287 142.69 449.469 142.69C447.121 142.69 444.772 142.69 442.894 142.69H359.763C331.583 142.69 302.464 142.69 271.936 142.69H253.149C228.727 142.69 203.365 142.69 177.064 142.69H72.7981C42.7395 142.69 28.6496 142.22 28.1799 138.928C28.1799 137.988 29.1193 136.107 39.4519 132.345C64.8138 123.411 109.902 109.774 170.019 92.3755C230.136 74.977 303.403 54.7572 382.307 33.5969H382.777V34.5374H382.307C303.403 54.7572 230.136 74.977 170.019 91.9053C109.902 109.304 64.8138 122.94 39.4519 131.875C29.5889 135.166 28.6496 137.047 28.6496 137.517C29.1193 141.279 54.0115 141.279 72.3284 141.279H176.594C202.895 141.279 228.257 141.279 252.68 141.279H271.466C301.994 141.279 331.114 141.279 359.293 141.279H442.424C444.772 141.279 446.651 141.279 448.999 141.279C476.24 141.279 512.874 141.749 555.143 133.285C598.353 125.291 629.35 111.655 650.016 92.8457L650.485 92.3755L650.955 92.8457L650.485 93.3159C629.82 112.595 598.822 125.762 555.143 134.226C518.04 141.749 485.163 142.69 459.332 142.69Z" fill="#E6007A"/>
<path d="M476.709 138.928C469.664 138.928 463.089 138.928 456.514 138.458C450.408 138.458 444.772 137.988 439.136 137.988H357.415C329.235 137.988 300.585 137.988 270.996 137.988L75.1462 137.518C45.5573 137.518 31.4674 137.047 30.9977 133.756C30.9977 132.815 31.9371 130.934 41.3304 127.643C64.8136 119.179 107.553 106.012 164.852 89.084C220.742 73.0963 290.722 53.3467 366.338 33.1268H366.808V34.0673H366.338C290.722 54.2871 220.742 74.0367 163.913 90.4947C106.614 106.953 64.3439 120.589 40.391 129.053C31.4674 132.345 30.5281 133.756 30.5281 134.696C30.9977 137.988 56.8293 137.988 74.2069 137.988L270.057 138.458C300.116 138.458 328.765 138.458 356.475 138.458H438.197C444.303 138.458 449.939 138.458 455.574 138.928C475.77 139.398 498.784 139.869 537.766 134.696C585.202 128.583 619.957 117.298 644.849 100.37H645.319L645.789 100.84H645.319C620.896 117.768 585.672 129.053 538.235 135.637C511.934 138.458 492.678 138.928 476.709 138.928Z" fill="#E6007A"/>
<path d="M476.71 135.637C468.256 135.637 462.15 135.167 456.045 135.167C449.939 134.696 443.833 134.696 435.849 134.696H355.067C327.357 134.696 299.177 134.696 269.588 134.696H243.287C222.152 134.696 200.078 134.696 177.534 134.696H77.0255C47.9063 134.696 33.8163 134.226 33.3467 130.934C33.3467 129.994 34.286 128.113 42.74 124.821C64.8142 116.828 105.205 104.131 159.217 88.1437C212.759 71.2154 279.451 52.8765 352.249 32.6567H352.719V33.5971H352.249C279.921 53.3467 213.228 72.1559 159.686 87.6734C105.205 103.661 64.8142 116.357 43.2096 124.821C35.2253 127.643 34.286 129.524 34.286 129.994C34.7557 133.286 60.5872 133.286 77.4951 133.286H178.003C200.547 133.286 222.621 133.286 243.756 133.286H270.058C299.646 133.286 327.826 133.286 355.536 133.286H436.319C444.303 133.286 450.409 133.756 456.514 133.756C470.135 134.696 484.225 135.167 521.328 132.345C572.991 128.113 611.504 118.709 639.683 103.661H640.153L640.623 104.131H640.153C611.504 119.179 572.991 128.583 521.328 132.815C500.663 135.167 487.043 135.637 476.71 135.637Z" fill="#E6007A"/>
<path d="M70.9193 111.655C59.1777 111.655 52.6024 111.185 51.6631 110.244V109.774C52.1328 108.363 52.6024 105.072 100.039 88.6137C130.097 78.2687 172.367 65.1023 226.378 48.6443H226.848V49.5847H226.378C172.367 65.5725 130.097 79.2091 100.039 89.5542C61.526 102.721 52.6024 108.363 52.1328 110.244C54.0114 112.125 85.9486 111.185 111.78 110.714C126.34 110.244 139.96 110.244 150.293 110.244H151.232L557.492 110.714V111.655H557.022L151.232 111.185C140.899 111.185 126.809 111.655 111.78 111.655C94.8722 111.185 81.252 111.655 70.9193 111.655Z" fill="#E6007A"/>
<path d="M77.4943 107.893C66.2223 107.893 59.1774 107.423 58.238 106.483V106.012C58.238 104.602 58.7077 101.31 103.326 85.3223C131.506 75.4475 171.897 62.2811 223.09 46.7635H223.56V47.704H223.09C171.897 63.2216 131.506 75.9177 103.326 85.7925C64.8133 99.4292 58.7077 104.131 58.7077 105.542C60.1167 106.953 91.5842 106.483 117.416 106.012C131.975 105.542 145.596 105.542 155.928 105.542L557.022 106.012V106.953H546.219L155.928 106.483H154.989C144.656 106.483 131.506 106.953 117.416 106.953C100.978 107.423 87.3572 107.893 77.4943 107.893Z" fill="#E6007A"/>
<path d="M564.537 104.602C557.022 104.602 550.917 104.131 545.281 104.131C539.645 103.661 533.539 103.661 526.494 103.661L115.068 103.191C86.4183 103.191 71.8587 102.721 71.389 99.4291C70.9194 98.0184 72.798 96.6078 76.0857 95.1971C90.1756 88.6139 117.886 78.7391 158.277 65.5727C197.259 52.8765 246.104 37.8292 304.343 20.9009H304.812V21.8414H304.343C246.104 37.8292 197.259 52.8765 158.277 65.5727C117.886 78.7391 90.1756 88.6139 76.0857 95.1971C71.8587 97.078 71.389 98.0184 71.389 98.4887C72.3284 101.78 97.6903 101.78 114.598 101.78L526.024 102.25C533.539 102.25 539.175 102.721 545.281 102.721C558.431 103.191 571.582 104.131 603.519 101.31H603.989V102.25H603.519C585.672 104.131 573.93 104.602 564.537 104.602Z" fill="#E6007A"/>
<path d="M598.353 99.429L120.704 98.9588C92.5243 98.9588 77.9646 98.4886 77.0253 95.197C76.5557 93.7863 77.9646 92.8458 81.2523 90.9649C94.4029 84.3817 120.704 74.9772 158.747 62.281C195.381 50.055 242.347 35.478 298.237 19.02H298.707V19.9604H298.237C242.347 36.4184 195.381 50.9955 158.747 63.2214C120.234 75.9176 94.4029 85.3222 81.2523 91.9054C77.495 93.7863 77.0253 94.7268 77.495 95.197C78.4343 98.4886 103.796 98.4886 120.234 98.4886L598.353 98.9588V99.429Z" fill="#E6007A"/>
<path d="M98.1601 96.1375C85.4791 96.1375 79.3735 95.6673 78.9038 94.7268C78.9038 94.2566 78.9038 93.7863 78.9038 93.3161C80.3128 90.0245 92.5241 83.9115 116.477 74.9772C141.369 65.5726 177.533 53.8169 224.5 38.7696H224.969V39.71H224.5C177.533 54.2871 141.369 66.5131 116.477 75.9177C87.3578 86.7329 80.3128 91.9054 79.3735 93.7863C79.3735 94.2566 79.3735 94.2566 79.3735 94.2566C80.7825 96.1375 111.78 95.197 136.673 94.7268C150.293 94.2566 163.443 94.2566 173.306 94.2566H174.246L569.233 94.7268V95.6673H568.764L174.246 95.197H173.776C163.913 95.197 150.762 95.6673 137.142 95.6673C120.234 96.1375 107.553 96.1375 98.1601 96.1375Z" fill="#E6007A"/>
<path d="M606.807 92.8459C599.762 92.8459 594.126 92.8459 588.02 92.3757C582.384 92.3757 576.748 91.9055 570.642 91.9055L180.821 91.4352H179.881C170.018 91.4352 157.338 91.9055 143.717 91.9055C108.962 92.8459 87.3575 92.8459 86.4182 90.965C85.9485 90.4948 85.9485 90.0246 86.4182 89.5543C87.3575 86.2627 99.0991 80.62 121.173 72.1559C144.657 63.2215 178.942 51.4658 223.56 37.3589H224.03V38.2994H223.56C178.942 52.4063 144.187 64.162 121.173 73.0963C93.9328 83.4414 87.3575 88.1436 86.8878 90.0246C86.8878 90.4948 86.8878 90.4948 86.8878 90.4948C88.2968 92.3757 118.825 91.4352 143.717 90.965C157.338 90.4948 170.488 90.4948 180.351 90.4948L570.173 90.965C576.278 90.965 581.914 90.965 587.55 91.4352C603.049 91.9055 619.018 92.3757 649.076 89.5543H649.546V90.4948H649.076C631.229 92.3757 618.078 92.8459 606.807 92.8459Z" fill="#E6007A"/>
<path d="M612.913 88.6138L142.778 87.6733C114.129 87.6733 99.5694 87.2031 98.63 83.9115C98.1604 82.971 99.5694 81.5603 101.918 80.6199C112.72 74.5069 135.734 65.5726 170.019 53.8169C202.896 42.5314 245.635 28.8947 296.828 13.3772H297.298V14.3177H296.828C245.635 29.8352 202.896 43.4718 170.019 54.7573C135.734 66.0428 112.72 74.9771 101.918 81.0901C99.0997 82.5008 99.0997 83.4413 99.0997 83.9115C100.039 87.2031 125.401 87.2031 142.309 87.2031L612.443 88.1436V88.6138H612.913Z" fill="#E6007A"/>
<path d="M123.052 85.3222C111.31 85.3222 104.265 84.852 103.326 83.9116C102.856 83.4413 102.856 82.9711 102.856 82.5009C103.326 79.2093 113.658 73.5665 133.854 65.5726C155.459 57.1085 187.865 45.3528 230.605 31.7162H231.075V32.6566H230.605C187.865 46.2933 155.459 58.049 133.854 66.5131C109.432 76.3879 103.796 80.62 103.326 82.9711C103.326 83.4413 103.326 83.4413 103.796 83.9116C105.674 85.7925 134.793 84.852 160.155 84.3818C173.306 83.9116 185.987 83.9116 195.85 83.9116H196.789L655.182 84.852H650.015L196.789 83.9116H195.85C185.987 83.9116 173.776 84.3818 160.155 84.3818C145.596 85.3222 132.915 85.3222 123.052 85.3222Z" fill="#E6007A"/>
<path d="M131.976 81.5604C120.704 81.5604 113.659 81.0902 112.25 80.1497C111.78 79.6795 111.31 79.2093 111.78 78.2688C112.25 74.9772 121.643 69.8047 139.96 62.281C160.155 53.8169 191.153 43.0017 231.544 29.3651H232.014L232.484 30.3055H232.014C191.623 43.4719 160.625 54.7574 140.43 63.2215C117.886 72.6261 112.719 76.8581 112.719 78.7391C112.719 79.2093 112.719 79.2093 113.189 79.6795C115.068 81.5604 143.717 80.62 169.079 80.1497C181.76 79.6795 194.441 79.6795 203.834 79.6795H204.774L657.53 80.62V81.5604H657.06L204.774 80.62H203.834C193.971 80.62 181.29 81.0902 169.079 81.0902C154.05 81.5604 141.369 81.5604 131.976 81.5604Z" fill="#E6007A"/>
<path d="M631.699 77.7987H603.049L168.609 77.3284C139.49 77.3284 124.461 76.8582 123.522 73.0964C123.052 72.1559 123.991 71.2154 125.4 70.275C133.854 64.6322 153.58 56.1681 184.578 44.8826C213.697 34.5376 252.21 21.3712 299.176 6.79413H299.646V7.73459H299.176C252.21 22.7819 213.697 35.4781 184.578 45.8231C154.519 56.6384 134.794 65.1025 126.34 70.7452C124.931 71.6857 124.461 72.1559 124.461 73.0964C125.4 76.388 151.701 76.388 168.609 76.388L631.699 77.3284V77.7987Z" fill="#E6007A"/>
<path d="M151.701 74.5069C140.899 74.5069 132.915 74.0367 131.506 73.0962C130.567 72.626 130.097 71.6856 130.097 71.2153C130.097 67.9237 138.551 63.2214 154.989 55.6978C173.306 47.7039 202.425 36.8886 240.938 23.7222H241.407L241.877 24.6627H241.407C202.895 37.8291 174.245 48.1741 155.459 56.6382C135.733 65.1024 131.506 69.3344 131.036 71.2153C131.036 71.6856 131.506 72.1558 131.976 72.626C134.794 74.5069 162.973 73.5665 187.866 73.0962C200.547 72.626 213.697 72.626 223.09 72.626L464.028 73.0962C488.451 73.0962 512.874 73.0962 536.357 73.0962H606.337V74.0367H592.247H536.357C512.874 74.0367 488.921 74.0367 464.028 74.0367L223.09 73.5665H222.151C212.758 73.5665 200.077 74.0367 187.866 74.0367C174.715 74.5069 162.034 74.5069 151.701 74.5069Z" fill="#E6007A"/>
<path d="M162.034 71.2154C151.231 71.2154 143.717 70.7451 141.838 69.8047C140.899 69.3344 140.429 68.394 140.429 67.4535C140.429 64.1619 147.944 59.4596 162.973 52.8764C180.351 44.8826 207.591 34.5375 244.225 22.3116H244.695L245.164 23.252H244.695C208.061 35.9482 180.82 46.2932 163.443 53.8169C145.596 61.8108 141.369 66.0428 141.369 67.9238C141.369 68.394 141.838 68.8642 142.308 69.3344C145.126 70.7451 171.897 70.2749 197.259 69.8047C209.47 69.3344 221.681 69.3344 231.074 69.3344H232.014L610.563 69.8047V70.7451L232.014 70.2749C222.62 70.2749 209.47 70.7451 197.259 70.7451C184.578 71.2154 171.897 71.2154 162.034 71.2154Z" fill="#E6007A"/>
<path d="M654.242 67.4535L198.668 66.5131C169.079 66.5131 154.049 66.0428 152.64 62.281C152.171 61.3406 152.64 60.8703 154.049 59.9299C160.155 54.7574 177.063 46.7635 204.304 36.4185H204.773L205.243 36.8887H204.773C177.533 47.2337 160.625 55.2276 154.519 60.4001C153.58 60.8703 153.58 61.8108 153.58 62.281C154.989 65.5726 181.29 66.0428 198.668 66.0428L654.242 66.9833V67.4535Z" fill="#E6007A"/>
<path d="M184.578 64.6322C173.775 64.6322 166.261 64.1619 163.913 63.6917C162.504 63.2215 161.564 62.281 161.564 61.3406C161.564 58.5192 167.67 53.8169 180.351 47.7039C195.85 40.1803 221.681 30.3055 255.967 17.6093H256.436L256.906 18.0795H256.436C221.681 30.3055 196.319 40.1803 180.82 47.7039C165.322 55.2276 162.034 58.9894 162.034 60.8703C162.034 61.8108 162.504 62.281 163.913 62.7513C167.67 64.1619 193.501 63.6917 218.863 63.2215C230.605 63.2215 242.816 62.7513 252.209 62.7513H253.618L630.759 63.2215V64.1619H630.289L253.618 63.6917H252.679C243.286 63.6917 231.075 64.1619 219.333 64.1619C207.122 64.1619 194.441 64.6322 184.578 64.6322Z" fill="#E6007A"/>
<path d="M606.806 60.8703H588.489L220.742 60.4001C190.683 60.4001 175.185 59.9299 173.776 56.168C173.306 55.6978 173.776 54.7573 174.715 53.8169C179.881 48.6444 194.91 41.1207 220.272 30.7757H220.742L221.212 31.2459H220.742C195.38 41.591 180.351 49.1146 175.654 53.8169C174.715 54.7573 175.185 55.2276 175.185 55.2276C176.594 58.9894 203.834 58.9894 221.212 58.9894L607.276 59.4596V60.8703H606.806Z" fill="#E6007A"/>
<path d="M208.531 58.0488C198.199 58.0488 190.214 57.5786 187.866 57.1084C185.987 56.6381 184.578 55.2274 184.578 54.287C184.578 51.4656 189.275 47.2336 200.547 41.5908C214.637 34.0672 238.12 24.6626 270.527 12.4366H270.997L271.466 12.9069H270.997C238.59 24.6626 215.107 34.5374 201.017 42.061C187.866 48.6442 185.518 52.4061 185.518 53.8168C185.518 54.7572 186.457 55.6977 188.336 56.1679C193.032 57.5786 218.394 57.1084 242.817 56.6381C254.558 56.6381 266.3 56.1679 275.693 56.1679H276.633L651.895 56.6381V57.5786H651.425L276.633 57.1084H275.693C266.3 57.1084 254.558 57.1084 242.817 57.5786C231.075 57.5786 218.864 58.0488 208.531 58.0488Z" fill="#E6007A"/>
<path d="M221.211 54.7574C210.879 54.7574 202.895 54.2872 200.546 53.8169C198.198 52.8765 196.789 51.936 196.789 50.5253C196.319 47.704 201.016 43.9421 210.409 38.7696C223.56 31.7162 245.634 22.3116 276.162 10.5559H276.632L277.102 11.0261H276.632C245.634 22.7818 223.56 32.1864 210.879 39.2399C199.607 45.3528 197.259 48.6444 197.259 50.5253C197.259 51.4658 198.668 52.4062 200.546 52.8765C205.243 54.2872 230.605 53.8169 254.558 53.3467C266.299 53.3467 278.511 52.8765 287.904 52.8765L591.307 53.3467V54.2872H590.837L287.904 53.8169H286.964C277.571 53.8169 265.83 53.8169 254.558 54.2872C242.816 54.2872 231.074 54.7574 221.211 54.7574Z" fill="#E6007A"/>
<path d="M637.335 50.9954L257.846 50.5252C227.318 50.5252 211.349 50.055 209.471 46.2932C209.471 45.8229 209.001 45.3527 209.471 44.4122C212.289 39.71 224.5 32.6565 246.574 22.7817H247.044L247.514 23.7222H247.044C225.439 33.1268 212.758 40.1802 210.41 44.8825C209.94 45.3527 210.41 45.8229 210.41 45.8229C212.289 49.1145 233.893 49.5848 257.846 49.5848L637.335 50.055V50.9954Z" fill="#E6007A"/>
<path d="M248.453 48.174C238.12 48.174 230.136 48.174 227.318 47.2336C224.03 46.2931 222.152 45.3527 222.152 43.4718C221.682 40.6504 225.439 37.3588 232.954 32.6565C244.226 25.6031 264.422 16.6687 293.541 5.38324H294.01L294.48 5.85347H294.01C264.891 17.6092 244.696 26.5435 233.424 33.1267C224.03 38.7695 222.621 41.5908 223.091 43.4718C223.091 44.8824 224.97 45.8229 227.788 46.2931C233.424 47.7038 257.846 47.2336 281.799 46.7634C293.071 46.7634 305.282 46.2931 314.206 46.2931L615.261 47.2336V48.174H614.791L313.736 47.2336H312.797C303.873 47.2336 292.132 47.2336 280.86 47.7038C269.588 48.174 257.846 48.174 248.453 48.174Z" fill="#E6007A"/>
<path d="M593.656 44.8825H570.173L285.087 44.4123C258.785 44.4123 238.12 43.942 235.772 40.1802C235.302 39.71 235.302 39.2397 235.302 38.7695C236.711 34.0672 247.044 27.484 267.709 18.0795H268.179L268.648 18.5497H268.179C248.453 27.9543 237.651 34.5375 236.242 38.7695C236.242 39.2397 236.242 39.2397 236.242 39.71C238.59 43.0016 260.664 43.4718 285.087 43.4718L593.656 43.942V44.8825Z" fill="#E6007A"/>
<path d="M277.102 42.0612C266.77 42.0612 258.786 42.0612 255.498 41.1208C251.271 40.1803 248.923 38.7696 248.453 36.8887C247.983 34.5376 250.801 31.246 256.907 27.0139H257.377L257.846 27.4841H257.377C251.741 31.246 248.923 34.5376 249.392 36.4185C249.862 37.8292 251.741 39.2399 255.498 40.1803C262.073 41.591 286.026 41.1208 309.04 40.6505C319.842 40.6505 331.114 40.1803 340.037 40.1803H340.977L640.623 40.6505V41.591H619.957L341.446 41.1208C332.053 41.1208 320.781 41.1208 309.509 41.591C298.237 42.0612 286.965 42.0612 277.102 42.0612Z" fill="#E6007A"/>
<path d="M620.897 38.7696H597.413L314.206 38.2994C279.45 38.2994 263.012 37.3589 263.012 33.1269C263.012 28.4246 271.936 21.8414 290.253 12.907H290.722L291.192 13.3773H290.722C272.406 22.3116 263.482 28.8948 263.482 33.1269C263.482 37.3589 292.601 37.3589 314.206 37.3589L620.897 37.8292V38.7696Z" fill="#E6007A"/>
<path d="M308.1 35.9482C297.767 35.9482 289.783 35.9482 286.026 35.0077C280.86 34.0673 277.572 32.6566 277.102 30.3054C276.633 27.9543 278.511 25.1329 283.208 21.3711H283.678L284.147 21.8413H283.678C279.451 25.1329 277.572 27.9543 278.042 29.8352C278.511 31.7161 281.329 33.1268 286.026 34.0673C293.071 35.478 316.554 35.0077 339.568 34.5375C350.37 34.5375 361.172 34.0673 370.096 34.0673H371.035L599.762 34.5375V35.478H599.292H371.505C362.581 35.478 350.84 35.478 340.037 35.9482C328.765 35.9482 317.493 35.9482 308.1 35.9482Z" fill="#E6007A"/>
<path d="M649.546 33.1269L345.203 32.6567C315.144 32.6567 294.01 32.1864 292.131 27.9544C290.722 23.7223 297.767 17.1391 314.675 8.20477H315.144L315.614 8.675H315.144C295.419 19.4903 292.131 24.6628 293.07 27.4841C294.479 31.7162 322.659 31.7162 345.203 31.7162L649.546 32.1864V33.1269Z" fill="#E6007A"/>
<path d="M596.944 29.8351H362.112C331.583 29.8351 309.979 29.3649 308.1 25.1328C305.282 20.9008 312.327 14.3176 328.296 5.38324H328.766V5.85347H328.296C317.494 11.4962 305.752 19.4901 308.1 24.1924C310.449 28.4244 338.628 28.4244 361.642 28.4244L596.944 28.8947V29.8351Z" fill="#E6007A"/>
<path d="M358.354 27.4841C348.491 27.4841 340.037 27.4841 335.341 26.5436C327.826 25.6031 324.069 23.7222 322.66 20.9009C322.19 19.0199 323.129 16.6688 325.478 13.8474L325.947 13.3772L326.887 14.3177L326.417 14.7879C324.069 17.139 323.129 19.4902 323.599 21.3711C324.538 23.7222 328.296 25.6031 335.341 26.5436C343.795 27.4841 366.808 27.4841 388.882 27.0138C399.215 27.0138 410.017 26.5436 418.941 26.5436H419.88L647.667 27.0138V27.9543H648.137L420.35 27.0138H419.411C410.487 27.0138 399.685 27.0138 389.352 27.4841C378.55 27.4841 367.747 27.4841 358.354 27.4841Z" fill="#E6007A"/>
<path d="M629.351 24.6627L395.927 24.1925C365.399 24.1925 343.795 23.7222 340.037 19.9604L339.568 19.4902L340.507 19.02L340.977 19.4902C344.734 23.7222 371.974 23.7222 396.397 23.7222H629.351V24.6627Z" fill="#E6007A"/>
<path d="M394.518 22.3117C384.656 22.3117 376.202 22.3117 371.035 21.8414C362.112 20.901 356.945 19.0201 355.536 15.7285C354.597 13.8475 355.067 11.9666 356.945 9.61549V9.14526L357.885 9.61549V10.0857C356.476 11.9666 356.006 13.8475 356.476 15.2582C357.885 18.0796 362.581 19.9605 371.035 20.901C380.429 21.8414 402.972 21.3712 424.577 21.3712C434.44 21.3712 445.242 20.901 453.696 20.901H455.105H609.625V21.8414H609.155H455.105C446.182 21.8414 435.379 21.8414 424.577 22.3117C414.244 21.8414 403.912 22.3117 394.518 22.3117Z" fill="#E6007A"/>
<path d="M413.774 19.4903C403.911 19.4903 394.988 19.4903 389.821 19.0201C379.958 18.0796 374.322 16.1987 372.914 12.9071C371.974 11.4964 372.444 9.14527 373.853 7.26436V6.79413L374.322 7.26436V7.73459C372.913 9.6155 372.913 11.4964 373.383 12.9071C374.792 15.7285 380.428 17.6094 389.821 18.5498C399.684 19.0201 422.228 19.0201 443.833 18.5498C454.165 18.5498 465.437 18.5498 474.361 18.0796L629.35 18.5498V19.0201H628.881H474.361C465.437 19.0201 454.635 19.0201 443.833 19.4903C433.5 19.4903 423.168 19.4903 413.774 19.4903Z" fill="#E6007A"/>
<path d="M610.094 16.6688L451.348 16.1986C424.577 16.1986 398.745 16.1986 392.64 12.4368H392.17L392.64 11.9666H393.109C399.215 15.7284 425.516 15.7284 451.348 15.7284L610.094 16.1986V16.6688Z" fill="#E6007A"/>
<path d="M453.226 14.3177C443.363 14.3177 434.44 14.3177 428.804 13.8475H428.334V12.907H428.804C439.606 13.8475 461.211 13.3773 482.345 13.3773C492.678 13.3773 503.011 12.907 511.934 13.3773H590.838V14.3177H590.368H511.465C502.541 14.3177 492.208 14.3177 481.876 14.3177C472.482 14.3177 462.15 14.3177 453.226 14.3177Z" fill="#E6007A"/>
<path d="M473.891 11.9666C464.028 11.9666 455.105 11.9666 448.999 11.4964H448.53V10.5559H448.999C460.271 11.4964 481.876 11.0261 503.011 11.0261C512.404 11.0261 522.737 11.0261 531.19 11.0261H532.599H611.973V11.9666H611.503H532.599C523.676 11.9666 513.343 11.9666 503.011 11.9666C493.148 11.9666 482.815 11.9666 473.891 11.9666Z" fill="#E6007A"/>
<path d="M593.186 9.14514H511.465C484.224 9.14514 458.393 9.14514 450.408 5.38331H449.939V4.91309H450.408C458.862 8.20469 484.224 8.20469 511.465 8.20469H511.934H593.186V9.14514Z" fill="#E6007A"/>
<path d="M539.175 4.91313C528.843 4.91313 519.919 4.91313 512.874 4.4429H512.404V3.50244H512.874C526.025 3.97267 546.69 3.97267 566.885 3.97267C576.748 3.97267 586.611 3.97267 595.535 3.97267H596.005V4.91313H595.535C586.611 4.91313 576.279 4.91313 566.885 4.91313C557.492 4.91313 548.099 4.91313 539.175 4.91313Z" fill="#E6007A"/>
</g>
<defs>
<clipPath id="clip0">
<rect width="658" height="243.578" fill="white" transform="translate(0 0.210815)"/>
</clipPath>
</defs>
</svg>
